<mxfile host="app.diagrams.net" modified="2021-07-12T02:48:34.510Z" agent="5.0 (Windows NT 10.0; Win64; x64) AppleWebKit/537.36 (KHTML, like Gecko) Chrome/91.0.4472.124 Safari/537.36 Edg/91.0.864.64" etag="nhcfk0sh0pFC6e7wNEEZ" version="14.8.4" type="github" pages="4">
  <diagram name="TwoButtons" id="9f46799a-70d6-7492-0946-bef42562c5a5">
    <mxGraphModel dx="1161" dy="674" grid="1" gridSize="10" guides="1" tooltips="1" connect="1" arrows="1" fold="1" page="1" pageScale="1" pageWidth="1100" pageHeight="850" background="none" math="0" shadow="0">
      <root>
        <mxCell id="0" />
        <mxCell id="1" parent="0" />
        <mxCell id="KLwD5VwdmR7PRyjQqvhB-4" style="edgeStyle=orthogonalEdgeStyle;rounded=0;orthogonalLoop=1;jettySize=auto;html=1;exitX=0.5;exitY=1;exitDx=0;exitDy=0;entryX=0.5;entryY=0;entryDx=0;entryDy=0;" parent="1" source="KLwD5VwdmR7PRyjQqvhB-1" target="KLwD5VwdmR7PRyjQqvhB-2" edge="1">
          <mxGeometry relative="1" as="geometry" />
        </mxCell>
        <mxCell id="KLwD5VwdmR7PRyjQqvhB-1" value="DoSchedules" style="rounded=1;whiteSpace=wrap;html=1;" parent="1" vertex="1">
          <mxGeometry x="100" y="40" width="120" height="60" as="geometry" />
        </mxCell>
        <mxCell id="KLwD5VwdmR7PRyjQqvhB-5" style="edgeStyle=orthogonalEdgeStyle;rounded=0;orthogonalLoop=1;jettySize=auto;html=1;exitX=0.5;exitY=1;exitDx=0;exitDy=0;entryX=0.5;entryY=0;entryDx=0;entryDy=0;" parent="1" source="KLwD5VwdmR7PRyjQqvhB-2" target="KLwD5VwdmR7PRyjQqvhB-3" edge="1">
          <mxGeometry relative="1" as="geometry" />
        </mxCell>
        <mxCell id="KLwD5VwdmR7PRyjQqvhB-7" style="edgeStyle=orthogonalEdgeStyle;rounded=0;orthogonalLoop=1;jettySize=auto;html=1;exitX=1;exitY=0.25;exitDx=0;exitDy=0;entryX=1;entryY=0.75;entryDx=0;entryDy=0;" parent="1" source="KLwD5VwdmR7PRyjQqvhB-2" target="KLwD5VwdmR7PRyjQqvhB-1" edge="1">
          <mxGeometry relative="1" as="geometry" />
        </mxCell>
        <mxCell id="KLwD5VwdmR7PRyjQqvhB-2" value="DoJobs" style="rounded=1;whiteSpace=wrap;html=1;" parent="1" vertex="1">
          <mxGeometry x="100" y="140" width="120" height="60" as="geometry" />
        </mxCell>
        <mxCell id="KLwD5VwdmR7PRyjQqvhB-6" style="edgeStyle=orthogonalEdgeStyle;rounded=0;orthogonalLoop=1;jettySize=auto;html=1;exitX=1;exitY=0.5;exitDx=0;exitDy=0;entryX=1;entryY=0.75;entryDx=0;entryDy=0;" parent="1" source="KLwD5VwdmR7PRyjQqvhB-3" target="KLwD5VwdmR7PRyjQqvhB-2" edge="1">
          <mxGeometry relative="1" as="geometry" />
        </mxCell>
        <mxCell id="KLwD5VwdmR7PRyjQqvhB-3" value="DoTasks" style="rounded=1;whiteSpace=wrap;html=1;" parent="1" vertex="1">
          <mxGeometry x="100" y="240" width="120" height="60" as="geometry" />
        </mxCell>
        <mxCell id="KLwD5VwdmR7PRyjQqvhB-8" value="For Ugv Mssion" style="rounded=1;whiteSpace=wrap;html=1;" parent="1" vertex="1">
          <mxGeometry x="360" y="40" width="120" height="60" as="geometry" />
        </mxCell>
        <mxCell id="KLwD5VwdmR7PRyjQqvhB-9" value="PLC 004 = 1 Start" style="rounded=1;whiteSpace=wrap;html=1;" parent="1" vertex="1">
          <mxGeometry x="360" y="120" width="120" height="60" as="geometry" />
        </mxCell>
        <mxCell id="KLwD5VwdmR7PRyjQqvhB-10" value="&lt;b&gt;Need to escape!&lt;/b&gt;" style="text;html=1;strokeColor=none;fillColor=none;align=center;verticalAlign=middle;whiteSpace=wrap;rounded=0;" parent="1" vertex="1">
          <mxGeometry x="240" y="250" width="110" height="20" as="geometry" />
        </mxCell>
        <mxCell id="KLwD5VwdmR7PRyjQqvhB-12" value="小車回充電站" style="ellipse;whiteSpace=wrap;html=1;aspect=fixed;" parent="1" vertex="1">
          <mxGeometry x="760" y="130" width="100" height="100" as="geometry" />
        </mxCell>
        <mxCell id="KLwD5VwdmR7PRyjQqvhB-14" value="" style="shape=flexArrow;endArrow=classic;html=1;entryX=0.5;entryY=0;entryDx=0;entryDy=0;" parent="1" target="KLwD5VwdmR7PRyjQqvhB-12" edge="1">
          <mxGeometry width="50" height="50" relative="1" as="geometry">
            <mxPoint x="810" y="60" as="sourcePoint" />
            <mxPoint x="1020" y="240" as="targetPoint" />
          </mxGeometry>
        </mxCell>
        <mxCell id="KLwD5VwdmR7PRyjQqvhB-15" value="&lt;font style=&quot;font-size: 16px&quot;&gt;User Clicks Button&lt;/font&gt;" style="text;html=1;strokeColor=none;fillColor=none;align=center;verticalAlign=middle;whiteSpace=wrap;rounded=0;" parent="1" vertex="1">
          <mxGeometry x="730" y="30" width="160" height="20" as="geometry" />
        </mxCell>
        <mxCell id="KLwD5VwdmR7PRyjQqvhB-16" value="" style="shape=flexArrow;endArrow=classic;html=1;exitX=0.5;exitY=1;exitDx=0;exitDy=0;" parent="1" source="KLwD5VwdmR7PRyjQqvhB-12" target="KLwD5VwdmR7PRyjQqvhB-17" edge="1">
          <mxGeometry width="50" height="50" relative="1" as="geometry">
            <mxPoint x="809.5" y="235" as="sourcePoint" />
            <mxPoint x="810" y="310" as="targetPoint" />
            <Array as="points">
              <mxPoint x="810" y="290" />
            </Array>
          </mxGeometry>
        </mxCell>
        <mxCell id="KLwD5VwdmR7PRyjQqvhB-17" value="Front end should:&lt;br&gt;&lt;br&gt;1. Create a new Schedule with &quot;schedule_status&quot; == 7 &amp;amp;&amp;amp; &quot;schedule_command&quot; == 2&lt;br&gt;2. prompt up comfirmation box for user to decide ugv_init_pos&lt;br&gt;3. Only maps with &quot;dock_info&quot; == 1 could be selected.&lt;br&gt;4. After user confirmation, front end should update &quot;planned_start_time&quot; as 10 sec later from current time, and then change &quot;schedule_status&quot; = 1&amp;nbsp;" style="rounded=1;whiteSpace=wrap;html=1;" parent="1" vertex="1">
          <mxGeometry x="580" y="305" width="460" height="120" as="geometry" />
        </mxCell>
        <mxCell id="KLwD5VwdmR7PRyjQqvhB-19" value="Need a countdown function, should notify user." style="rounded=1;whiteSpace=wrap;html=1;" parent="1" vertex="1">
          <mxGeometry x="360" y="310" width="120" height="60" as="geometry" />
        </mxCell>
        <mxCell id="o0h2RoyA1hUW4Qd77Wsh-2" value="小車回充電站" style="ellipse;whiteSpace=wrap;html=1;aspect=fixed;" parent="1" vertex="1">
          <mxGeometry x="50" y="460" width="100" height="100" as="geometry" />
        </mxCell>
        <mxCell id="o0h2RoyA1hUW4Qd77Wsh-4" value="1. Enable Button &quot;回充電站&quot; and &quot;手臂復位&quot; only when &quot;control_mode&quot; == 0 in table &quot;sys_status&quot;" style="rounded=1;whiteSpace=wrap;html=1;" parent="1" vertex="1">
          <mxGeometry x="235" y="480" width="315" height="70" as="geometry" />
        </mxCell>
      </root>
    </mxGraphModel>
  </diagram>
  <diagram id="owZQCH_vDhyIAB7X52QG" name="RedoButton">
    <mxGraphModel dx="1161" dy="1843" grid="1" gridSize="10" guides="1" tooltips="1" connect="1" arrows="1" fold="1" page="1" pageScale="1" pageWidth="827" pageHeight="1169" math="0" shadow="0">
      <root>
        <mxCell id="n0nwbGPEsCJ3wl-f-12y-0" />
        <mxCell id="n0nwbGPEsCJ3wl-f-12y-1" parent="n0nwbGPEsCJ3wl-f-12y-0" />
        <mxCell id="9moOud4jFm4v_8fGxUat-4" style="edgeStyle=orthogonalEdgeStyle;rounded=0;orthogonalLoop=1;jettySize=auto;html=1;exitX=0.5;exitY=1;exitDx=0;exitDy=0;entryX=0.5;entryY=0;entryDx=0;entryDy=0;" parent="n0nwbGPEsCJ3wl-f-12y-1" source="9moOud4jFm4v_8fGxUat-0" target="9moOud4jFm4v_8fGxUat-3" edge="1">
          <mxGeometry relative="1" as="geometry" />
        </mxCell>
        <mxCell id="9moOud4jFm4v_8fGxUat-27" style="edgeStyle=orthogonalEdgeStyle;rounded=0;orthogonalLoop=1;jettySize=auto;html=1;exitX=0;exitY=0.5;exitDx=0;exitDy=0;entryX=1;entryY=0.5;entryDx=0;entryDy=0;" parent="n0nwbGPEsCJ3wl-f-12y-1" source="9moOud4jFm4v_8fGxUat-0" target="9moOud4jFm4v_8fGxUat-26" edge="1">
          <mxGeometry relative="1" as="geometry" />
        </mxCell>
        <mxCell id="9moOud4jFm4v_8fGxUat-0" value="重做" style="rounded=1;whiteSpace=wrap;html=1;" parent="n0nwbGPEsCJ3wl-f-12y-1" vertex="1">
          <mxGeometry x="360" y="-990" width="90" height="40" as="geometry" />
        </mxCell>
        <mxCell id="9moOud4jFm4v_8fGxUat-1" value="" style="shape=flexArrow;endArrow=classic;html=1;entryX=0.5;entryY=0;entryDx=0;entryDy=0;" parent="n0nwbGPEsCJ3wl-f-12y-1" target="9moOud4jFm4v_8fGxUat-0" edge="1">
          <mxGeometry width="50" height="50" relative="1" as="geometry">
            <mxPoint x="405" y="-1070" as="sourcePoint" />
            <mxPoint x="380" y="-1050" as="targetPoint" />
          </mxGeometry>
        </mxCell>
        <mxCell id="9moOud4jFm4v_8fGxUat-2" value="&lt;font style=&quot;font-size: 16px&quot;&gt;User clicks the button&lt;/font&gt;" style="text;html=1;strokeColor=none;fillColor=none;align=center;verticalAlign=middle;whiteSpace=wrap;rounded=0;" parent="n0nwbGPEsCJ3wl-f-12y-1" vertex="1">
          <mxGeometry x="400" y="-1100" width="110" height="20" as="geometry" />
        </mxCell>
        <mxCell id="9moOud4jFm4v_8fGxUat-25" style="edgeStyle=orthogonalEdgeStyle;rounded=0;orthogonalLoop=1;jettySize=auto;html=1;exitX=0.5;exitY=1;exitDx=0;exitDy=0;entryX=0.5;entryY=0;entryDx=0;entryDy=0;" parent="n0nwbGPEsCJ3wl-f-12y-1" source="9moOud4jFm4v_8fGxUat-3" target="9moOud4jFm4v_8fGxUat-16" edge="1">
          <mxGeometry relative="1" as="geometry">
            <mxPoint x="445" y="-760" as="targetPoint" />
          </mxGeometry>
        </mxCell>
        <mxCell id="9moOud4jFm4v_8fGxUat-3" value="Front end should prompt up the window for user to choose on Page 4" style="rounded=1;whiteSpace=wrap;html=1;" parent="n0nwbGPEsCJ3wl-f-12y-1" vertex="1">
          <mxGeometry x="317.5" y="-890" width="175" height="60" as="geometry" />
        </mxCell>
        <mxCell id="9moOud4jFm4v_8fGxUat-15" value="" style="group" parent="n0nwbGPEsCJ3wl-f-12y-1" vertex="1" connectable="0">
          <mxGeometry x="280" y="-750" width="330" height="150" as="geometry" />
        </mxCell>
        <mxCell id="9moOud4jFm4v_8fGxUat-16" value="" style="rounded=1;whiteSpace=wrap;html=1;" parent="9moOud4jFm4v_8fGxUat-15" vertex="1">
          <mxGeometry width="330" height="150" as="geometry" />
        </mxCell>
        <mxCell id="9moOud4jFm4v_8fGxUat-17" value="請選擇" style="rounded=1;whiteSpace=wrap;html=1;" parent="9moOud4jFm4v_8fGxUat-15" vertex="1">
          <mxGeometry x="24.264705882352942" y="20" width="247.5" height="30" as="geometry" />
        </mxCell>
        <mxCell id="9moOud4jFm4v_8fGxUat-18" value="重做錯誤部分" style="rounded=1;whiteSpace=wrap;html=1;" parent="9moOud4jFm4v_8fGxUat-15" vertex="1">
          <mxGeometry x="24.264705882352942" y="80" width="116.47058823529412" height="50" as="geometry" />
        </mxCell>
        <mxCell id="9moOud4jFm4v_8fGxUat-19" value="重做整個任務" style="rounded=1;whiteSpace=wrap;html=1;" parent="9moOud4jFm4v_8fGxUat-15" vertex="1">
          <mxGeometry x="155.2941176470588" y="80" width="116.47058823529412" height="50" as="geometry" />
        </mxCell>
        <mxCell id="9moOud4jFm4v_8fGxUat-20" value="" style="verticalLabelPosition=bottom;verticalAlign=top;html=1;shape=mxgraph.basic.x" parent="9moOud4jFm4v_8fGxUat-15" vertex="1">
          <mxGeometry x="291.1764705882353" y="10" width="19.41176470588235" height="20" as="geometry" />
        </mxCell>
        <mxCell id="9moOud4jFm4v_8fGxUat-21" style="edgeStyle=orthogonalEdgeStyle;rounded=0;orthogonalLoop=1;jettySize=auto;html=1;exitX=0.5;exitY=1;exitDx=0;exitDy=0;entryX=0.5;entryY=0;entryDx=0;entryDy=0;" parent="n0nwbGPEsCJ3wl-f-12y-1" source="9moOud4jFm4v_8fGxUat-18" target="9moOud4jFm4v_8fGxUat-22" edge="1">
          <mxGeometry relative="1" as="geometry">
            <mxPoint x="375" y="-575" as="targetPoint" />
          </mxGeometry>
        </mxCell>
        <mxCell id="9moOud4jFm4v_8fGxUat-22" value="&lt;div style=&quot;text-align: left&quot;&gt;&lt;span&gt;1. Read &quot;&lt;/span&gt;&lt;span style=&quot;text-align: left ; background-color: rgb(255 , 181 , 112)&quot;&gt;task_group_id&lt;/span&gt;&lt;span style=&quot;text-align: left&quot;&gt;&quot; from table &quot;sys_schedule_job_log&quot;&lt;/span&gt;&lt;/div&gt;&lt;div style=&quot;text-align: left&quot;&gt;&lt;span style=&quot;text-align: left&quot;&gt;&lt;br&gt;&lt;/span&gt;&lt;/div&gt;&lt;div style=&quot;text-align: left&quot;&gt;2. Insert a new schedule in table &quot;sys_schedule&quot; with &lt;span style=&quot;background-color: rgb(204 , 255 , 153)&quot;&gt;&quot;schdule_command&quot; == 4&lt;/span&gt; and write &quot;&lt;span style=&quot;background-color: rgb(255 , 181 , 112)&quot;&gt;task_group_id&quot;&lt;/span&gt;&amp;nbsp;in table &quot;sys_schedule&quot;&lt;/div&gt;&lt;div style=&quot;text-align: left&quot;&gt;&lt;br&gt;&lt;/div&gt;&lt;div style=&quot;text-align: left&quot;&gt;3. Insert a new job in table &quot;sys_schedule_job&quot; with the current &quot;model_config_id&quot;. Front end could retrieve the &quot;model_config_id&quot; by:&lt;/div&gt;&lt;div style=&quot;text-align: left&quot;&gt;&lt;span style=&quot;white-space: pre&quot;&gt; &lt;/span&gt;a. checking &quot;job_id&quot; in table &quot;sys_schedule_job_log&quot;.&lt;/div&gt;&lt;div style=&quot;text-align: left&quot;&gt;&lt;span style=&quot;white-space: pre&quot;&gt; &lt;/span&gt;b. checking &quot;mode_config_id&quot; in table &quot;sys_schedule_job&quot; where ID == &quot;job_id&#39;.&lt;/div&gt;&lt;div style=&quot;text-align: left&quot;&gt;&lt;span style=&quot;white-space: pre&quot;&gt; &lt;/span&gt;&lt;/div&gt;&lt;div style=&quot;text-align: left&quot;&gt;4. The &quot;status&quot; in table &quot;sys_schedule&quot; should be set as 7, waiting user to confirm &quot;ugv_init_pos&quot; &lt;b&gt;in 1 minutes, shown on Notify Box,&lt;/b&gt;&amp;nbsp;otherwise, timeout and then cancel the schedule, set &quot;schedule_status&quot; = 4&lt;/div&gt;&lt;div style=&quot;text-align: left&quot;&gt;&lt;br&gt;&lt;/div&gt;&lt;div style=&quot;text-align: left&quot;&gt;5. After user confirmation, front end should set &quot;schedule_status&quot; = 1.&amp;nbsp;&lt;/div&gt;" style="text;html=1;strokeColor=none;fillColor=none;align=center;verticalAlign=middle;whiteSpace=wrap;rounded=0;" parent="n0nwbGPEsCJ3wl-f-12y-1" vertex="1">
          <mxGeometry x="80" y="-510" width="330" height="290" as="geometry" />
        </mxCell>
        <mxCell id="9moOud4jFm4v_8fGxUat-23" style="edgeStyle=orthogonalEdgeStyle;rounded=0;orthogonalLoop=1;jettySize=auto;html=1;exitX=0.5;exitY=1;exitDx=0;exitDy=0;" parent="n0nwbGPEsCJ3wl-f-12y-1" source="9moOud4jFm4v_8fGxUat-19" target="9moOud4jFm4v_8fGxUat-24" edge="1">
          <mxGeometry relative="1" as="geometry">
            <mxPoint x="685" y="-560" as="targetPoint" />
          </mxGeometry>
        </mxCell>
        <mxCell id="9moOud4jFm4v_8fGxUat-24" value="&lt;div style=&quot;text-align: left&quot;&gt;&lt;div&gt;1. Read &quot;&lt;span style=&quot;background-color: rgb(255 , 181 , 112)&quot;&gt;task_group_id&lt;/span&gt;&quot; from table &quot;sys_schedule_job_log&quot;&lt;/div&gt;&lt;div&gt;&lt;br&gt;&lt;/div&gt;&lt;div&gt;2. Insert a new schedule in table &quot;sys_schedule&quot; with&amp;nbsp;&lt;span style=&quot;background-color: rgb(204 , 255 , 153)&quot;&gt;&quot;schdule_command&quot; == 5&lt;/span&gt;&amp;nbsp;and write &quot;&lt;span style=&quot;background-color: rgb(255 , 181 , 112)&quot;&gt;task_group_id&quot;&lt;/span&gt;&amp;nbsp;in table &quot;sys_schedule&quot;&lt;/div&gt;&lt;div&gt;&lt;br&gt;&lt;/div&gt;&lt;/div&gt;&lt;div style=&quot;text-align: left&quot;&gt;&lt;span style=&quot;background-color: rgb(204 , 255 , 153)&quot;&gt;&lt;br&gt;&lt;/span&gt;&lt;/div&gt;&lt;div style=&quot;text-align: left&quot;&gt;3.&amp;nbsp;&lt;span&gt;Insert a new job in table &quot;sys_schedule_job&quot; with the current &quot;model_config_id&quot;. Front end could retrieve the &quot;model_config_id&quot; by:&lt;/span&gt;&lt;/div&gt;&lt;div style=&quot;text-align: left&quot;&gt;&lt;span&gt; &lt;/span&gt;&lt;span&gt; &lt;/span&gt;a. checking &quot;job_id&quot; in table &quot;sys_schedule_job_log&quot;.&lt;/div&gt;&lt;div style=&quot;text-align: left&quot;&gt;&lt;span&gt; &lt;/span&gt;&lt;span&gt; &lt;/span&gt;b. checking &quot;mode_config_id&quot; in table &quot;sys_schedule_job&quot; where ID == &quot;job_id&#39;.&lt;/div&gt;&lt;div style=&quot;text-align: left&quot;&gt;&lt;br&gt;&lt;/div&gt;&lt;div style=&quot;text-align: left&quot;&gt;4. The &quot;status&quot; in table &quot;sys_schedule&quot; should be set as 7, waiting user to confirm &quot;ugv_init_pos&quot; &lt;b&gt;in 1 minutes, shown on Notify Box&lt;/b&gt;, otherwise, timeout out&amp;nbsp;&lt;span&gt;and then cancel the schedule, set &quot;schedule_status&quot; = 4&lt;/span&gt;&lt;/div&gt;&lt;div style=&quot;text-align: left&quot;&gt;&lt;br&gt;&lt;/div&gt;&lt;div style=&quot;text-align: left&quot;&gt;5. After user confirmation, front end should set &quot;schedule_status&quot; = 1.&amp;nbsp;&lt;/div&gt;" style="text;html=1;strokeColor=none;fillColor=none;align=center;verticalAlign=middle;whiteSpace=wrap;rounded=0;" parent="n0nwbGPEsCJ3wl-f-12y-1" vertex="1">
          <mxGeometry x="450" y="-520" width="340" height="320" as="geometry" />
        </mxCell>
        <mxCell id="9moOud4jFm4v_8fGxUat-26" value="Can only be activated when current job status is error(&lt;span style=&quot;background-color: rgb(204 , 255 , 153)&quot;&gt;status == 5&lt;/span&gt;), otherwise, front end should disable the button.&lt;br&gt;&lt;br&gt;front end could check the status in table &quot;sys_shcedule_job_log&quot;" style="text;html=1;strokeColor=none;fillColor=none;align=center;verticalAlign=middle;whiteSpace=wrap;rounded=0;" parent="n0nwbGPEsCJ3wl-f-12y-1" vertex="1">
          <mxGeometry x="80" y="-1040" width="220" height="90" as="geometry" />
        </mxCell>
        <mxCell id="9moOud4jFm4v_8fGxUat-28" style="edgeStyle=orthogonalEdgeStyle;rounded=0;orthogonalLoop=1;jettySize=auto;html=1;exitX=0.65;exitY=0.5;exitDx=0;exitDy=0;exitPerimeter=0;" parent="n0nwbGPEsCJ3wl-f-12y-1" source="9moOud4jFm4v_8fGxUat-20" target="9moOud4jFm4v_8fGxUat-29" edge="1">
          <mxGeometry relative="1" as="geometry">
            <mxPoint x="650" y="-780" as="targetPoint" />
            <mxPoint x="503.52941176470586" y="-610" as="sourcePoint" />
          </mxGeometry>
        </mxCell>
        <mxCell id="9moOud4jFm4v_8fGxUat-29" value="Do nothing" style="text;html=1;strokeColor=none;fillColor=none;align=center;verticalAlign=middle;whiteSpace=wrap;rounded=0;" parent="n0nwbGPEsCJ3wl-f-12y-1" vertex="1">
          <mxGeometry x="640" y="-770" width="90" height="40" as="geometry" />
        </mxCell>
        <mxCell id="rXCT14J-BfKCkpaahrCD-0" value="" style="shape=image;verticalLabelPosition=bottom;labelBackgroundColor=#ffffff;verticalAlign=top;aspect=fixed;imageAspect=0;image=data:image/png,iVBORw0KGgoAAAANSUhEUgAAAggAAADlCAYAAAA2uQ8WAAAgAElEQVR4XuydB3jlVZn/P7f39N4nyWR6bzD0Lk0FLOsKKiLWta6uFXVxdWVFBUXX/S8sKALSBaSXocM0YPpkSnrvyU1yb3Lb/3nPb+4QhkAmbSblnHnyTMrvd8r3nHve73nbMcVisRi6aAQ0AhoBjYBGQCOgERiCgEkTBL0eNAIaAY2ARkAjoBE4EgFNEPSa0AhoBDQCGgGNgEbgXQhogqAXhUZAI6AR0AhoBDQCmiDoNaAR0AhoBDQCGgGNwMgIaA3CyBjpJzQCGgGNgEZAIzDrENAEYdZNuR6wRkAjoBHQCGgERkZAE4SRMdJPHIlALAqhPogEAB0lO6MWiMkMVh9YnTNqWHowGgGNwOgR0ARh9JjpN3qr4a3/gvZtmiDMtNVgskLhxbDoy2B1z7TR6fFoBDQCo0BAE4RRgKUfFQRiUP8svPRFCDSDIx1MGpkZgYDkTOutgbyz4cw7wJk2I4alB6ER0AiMDQFNEMaG2yx+Kwa1T8PLX4LkhbD2l2DSDGFGLIjIADxyGmSsg7PuBGf6jBiWHoRGQCMwNgQ0QRgbbrP4rSEEIeNEOPMvIHZrXaY/AuF++GsupK/WBGH6z6YegUZg3AjMaoKg3OtiUWKhENHAAIQjxEzv7XQXM1uwOhyY5Ms8W0/NmiCM+1M3VSvQBGGqzozul0bguCAwqwlCOBwmWF1N3YZn6d9Vibs3QNQcefdExCBsijHocpOUX0z6uafimz8Xs812XCbt+DaqCcLxxX8SW9cEYRLB1VVrBKYfArOWIMQiEXp27aXyjvuxu914Vi3GnZCABYj29xPq6sJktWJNTFCBfH2dPZh6egm21hHt7iHnsstIXLUCzLNNva4JwvT7mB9ljzVBOEqg9GMagdmBwKwlCKGOTqr/+jeiLgdZH7wYV3IKFouJwfp6mh98BP9b2zC7XSSuXkU0EqZ986uYYla8K5ZhikSJNLVR9K9fw5acNDtWyuFRaoIwYydcE4QZO7V6YBqBsSAwawlC3/4DNNx1L5kfvQTH3DKsmIgE+2n+81+pvflmwv4gFq8bi8+LyWQh2ttDuKcPZ2kp2Z+8lO4XX6fw61/Gu2jhLPPinyCCEA5DJAIOh7FuJcSurw+83rGsY4hGjXmQOjyed86J1C1/t4h+CAgGwW4fWfsj70k52iiNgQGjDavVGE8oZLQhP8eL9EO+hv7u/UYsOEk52ufHhp7xliYI40FPv6sRmHEIzFqC4N+5i9ZHHif3s5/CkZFBLBYj0NHB3l9dT+D+B8CdgO+k9QQa6jA5XaStXEXj7X/FZLGQ85kr6NtTTu5nriDpxLVHL0BmxPIZgSA0N8O99xpCsKAAOjrA7zfIgPhspKXBJZdAbS288QZ89KOGEA0E4MYb4bvffX88hxPavb3w5pswZw7cdRd89rOQmvo28XjhBRgchDVroKkJXnwR5s2DzExITzdISXm5QRzkq7vbeE76WFYGH/kIPPOM8TshC3l54HIZ78jPiYlw2WXwxBNGvaWlIH16+WWYOxdKSt6e+f37oa0NsrIMMiPPyVdPD1x8MdxxBzQ2GkTjE5+AXbugv99oMzvb+P9oCcto15smCKNFTD9/nBCQ/drg7tPHWTwmxurY5PTZqDtKDJPCRP5NRJm9BGHHLloffYLcK6/A4nLi37GbaCRCoL+Lxt/8P0IDfeR+9Yv0N7ZhdlrIXreO8q99h8G2dnI/9Un6Dhwk59OXk7x+3eRt2O8xw/LhkC/zEP+HmCyOmMjayfaJGIEgiKAXwbl1KzidsHIlVFTA668bAk80Bo8/Dm+9BQ0NcOKJ8LnPgc8HX/863HyzgWdco/Dkk4bQXbTIENDXXGOg8pWvwPLlxnMi8IUgfOELcPAg/PnP8POfG1oCEcY/+5lRhwjr554zhLP0Q/r16U+D223Ut3YtJCdDfr7xjAh++Vn6dttthmZC8JX3pD9CfuRvmzfDL35htHvCCbB4sdEPISann26Qk2XLQLQBQmBE0Eufu7oMMrJkCaxbB+vXG3ULLn//u4HXl75k4CP1CcERshLXhEzEDjC0jnEShKiQwiFFNipZp2rDMpmQv8c39Pj6jf8u/vcj338/ARCLyoYoJUY0ZuK9AouGtmlsnrJsYpgm4LNy5GdRYTCkjfjncbjP7MROX4xo9G2sh7Y3FGNpMz5P8XmZ2H7EebmxRwnGQ0VVvO23cTH2rXg5cr6Hrh8106KYC4fpDwaJRCK4nE5cDvu4iUIcr/iajfdvuDUt6+2dfT7c+3es87fHEsM/0E6jfx+haJB0dxGpnkIspkMazXFOQCgyQKO/nPqe3djMDopSVpLiysM8AfXPcoLwOJkfuZSWhx+l+Z77iCZ6yPnkP2FPTKPxH4+Tdu5pZJx6Bharhc5Nm6i85loiweD7EgRZtL3+HgZCERITE+jv9ROKRPF4PAT7+4nETKQkJzEwEFCbmtfjVsSkr79ffaAGQxGSkhLUZufv6WVgcIBYzExaegrWQ4JhINDPwcpG5pYVYbNaiEYj1FcdxD9oItHnxmZ34PG4iYQH6esPkpCYhNvpINDfR4+/D29CIg6bmf7+AE6XG4fdRiQSpq+vD5vdic1iprvHjy8hAbttiHr80GZ8OFHScHkQ5AR+ww3GJ1lO1bfcYmgORIMggvKkkwxhWFlpfCxEAMtpXE7TIsj/8z8NwSwCXISyCNLvfMcQsF/7miEspW4hIJdeatTzyCNw1VWGBkHakffkmXPPNYiJnM6lTtm85QQvwl9O7VLOPtto67rr4JOffNvsED+ZSN9F0/DQQ4aaX+ZAhHpxsSHIhVzs2AEf+hD8v/9njEe+cnKM90R78Mc/wvXXG5oA0RCIpmDBAuPnp582NA5CEqTs3An/8R/GM2KikH5Ln0WYye/mzx/ndvI+r4+DIHR1tNLQ2onX5aCruwezzcHconxam5pweH14vR5aGmuxuFKwxQZoau1izpxCmupr8aVkkJbsoXx/JdFwGBH8DrebgoIC3A77oVPRO/sdDg3S1tZGcHCQ9uZ6WoIWSnLScTudhMODNLR2kJGaRqC/X33eTESpb2gkIyMTp9OmPpPpaelq7cvnp7O9na6ePtIzMzFFB2lp6yQxKQlzNEJfYICUlGQGBwfxeL2HPxPyXlNzE2aLjXTRjEXDNDQ0ErPYiYX6aesZZE5elvqMdnd1Ut/cxZzCHCwWCy63G5fTcUigROjq7CRmspLgddPc1EgoZiY9LUXtJb39A2RlZdLv7yFmseK0WIiZrSQmeBSXFmIQCYco319OXlEZPqcNf08nDa1dZKUl097SitXlITU5ST3X2dFGYDBKenoaVouVhETf4b1lcCBAc3MbSSlpmAnT2taOy5tAss9FY2MTVocbn8eJ39+LJyEJU2QQq8OF2+U8TATUPhbsp7y2hbKiPBw2i9p7ZF3I2GxOH8lJibjdTjrbW+nq9hMMDuJ0u0hLTcNqjmGyyj5kwu/vJiE5lUSfV/VRBHZrZzfNHZ1q3B6Xk4LsDByHIsqC0o7fj9vtxWY20eP3Y3cK1ja137lcLkKD0pbnHXtbV1szTR29JCe46Q6GKczNJhzspaq6jrD4nEWjWKw2srKzCfZ20dbRSXAgjNPpICUlFbfLATETLpeTproq0vOK8Hncaq5lL9pa/3derbmTSCxMbsJCLpz3Hdy2RIKBfgYGw/h8XgJ9vfQHB/B6fUQjIfy9fXi8PiymGAOhMB63i4EBYw1aDpHbSDTM3tbnea3mb3QHm7Ga7aS48zltzpXkJS4eN0mY1QSh6dFHSVi4mIP/+RtCTfWYnHasZaWKNHh8KXQ215N19plYonDgJz+jb+MmzC7X+xKE0OAAdbU1VNc1kZObQ2Njw6EPYTI2S4zq6gaWrFxJa+1BwiYHSxYtwN/RyJ6DdditZuyeROaVzmGgr5udu/czGBrEm5TOsiXzcRwS1v6OVh78x4usXrdMLUKPy86O7dvVptHcUMu8xSvISk+h8uBBwrEoLl8yZXMK6O/zU1VxkIg9nbkFiezau4+yefPxOJ1YCLNt5w6yC0pJclh5ZeNm1qw/jey0xCMkyggahJYWQ5hu326cyDdsgI9/3BBwNTWG0CwsBNEMSJHvRZjLafqvfzUEvQhPOe2L4N2zB1asMATtlVca5gvRUtx0E5x2GvzjH0Yd8k78RChkQwStCPGiIrjvPoM8yM9VVYZgFrOCbCrSjpgZRChLfUeqLEULIdqCV181+ilmBzFfCKkQgrBqlfG3r37V6K8ICtGO1Ncbwly0DtKmkBJpT8Ytmo6kJKMfYoaQ/ks/MjLgtdeMMcl7QqSEVG3aZPRRNBMXXGDUMxllzAQhxrZNr/LmvloKslOoamqhrHQhZYVZvPTCiyRn55Oa5GXjKy+QXboMlylIZXUjBQV5+IWIJqcxd042z254hUgoRCwaxpuYzGlnnElGoouuvhCZaUnvOCUG+3sp31tOU0sLe3a9RW2fmZVlxZSWluLvamXLm9spm7+IjrZOivJy6O3rp66+lqzMVFLT0zDZ3ZQVF5GZnkawt5unn36a8ooaFq8+hWhnJXtr2inKz1Gn1GCgj+KSUqIxM6tWrlACUkhMc1MDB2rqcDntpCRnkp7s4ZVXXiZkdRPr76SyOcD6NUtITfDw1lvb6AmGyM7OJTs9leSU5ENC0kWfv5uH//53vOn5LJyTwf2PbsDrspGbX0i3EK+GRpasOYXepkpMrkRcdivF8xayaG6BOgQ0NTXR1dnFCy+/wJLVp5KV5KG7q5WdBxpYUlbAwfJ9OBPTWTi/jFDAz5YtW3F6U8jLySYxOUlh4vElYLeYKd+zg7vu+TsXX/rPhHtq2bh1B560XBYVJPHK1t0kJyWRm52hiENKVi52IixauoKcjFTjoxOL0dXdTXtrM5srmlhTmkdCShoD3cac7D+wH6cvldycbEUAG2oqVV1dXX6SklPIy80hOdFNOArNjS0MhoNqfSxbvBCvx4tXCFR7J60dXURjMZx2O3PysnHabeqA1dZUx/adu3EnppGXmUrFwf30hiyUFedSV1dPckoqAwMhFixaTILHuJBMnNA3v/I8DZ2DOG3gNzk5/YTVhHuaefnVrfT296u5d3rczJ03n86GWpqam2nuDZHuc5GRmUVWdgYBfzf9IWitLidn7kKKCwtJS0vF43YqAS4EIUaUTG8ply78CXbc7N21g+auAOtWLuXNrZvoHYySkZ5BsK+HvkAQm8NDapKbju5eMlKTiWBj4YJ5inRK6Rvs4pG9v6Spdx92swufM432/joWZpzBaUVX4rB6xrVTzF6CsHMXjY88his3n4rrfgceE0mnnoQ7P4+u1jbSyubjXliKJy+fcFU9O7/8dWKdHZg9nvclCHKq8Hd3sX3XHpwOB5J/KTvdTZc/QGF+Hpu2vMmaE0/G31JLZ+8AixbOZ9uW1xgwu2muqSIpM5vVK5bTWldJT8hET2czEbOL9SeuxScsFfB3tPC3+55k/pIykhMSSfA6aWppw2aOsmnTRk449RySvS52bttOIDRISmYu84oLiUUG2bljG47UYlbMy2H7rp3k58vvITM9mfLy7bgTs8jLzOCVlzYwb8UpFGanjI4giPCW070IQhF8ogE45xxDeIvQFJu+qNJF0MY1CHJKFmH5/e8bfghimpCTuTj93XmnIRhF0H/xi3D33cbvf/Ur49Quz4mg3rbtbRu9qOPl96eeCuIT8corhu1ezA3i9yAkJu57cPLJhiAXoSwEQVT8caIhGofcXKN9OekLUXj2WaMv8pzUIVqKX//aON3LmNrbjfEKaZD3RZiLVkVMLXV1hsYj7qMgY5Z+C3kQf43Vqw0ziphHRAshdYpGREjSGWcYeMmYJsthcYwEQcxbr7/0HG+W17JobhE1La0sWbRUbZ6PPnQ/aUWLKclN4rEnn2P96ecw2NPMzh3lLJxfTEd3EE9KGoU5qWza8gb+nh4GQ2HSM7M55dTTyU3z0tYTJD8nA/MQ8iYnr+qKgzQ0t1JdXU0gbCIjJYmy+fPo7+3klVdeJzE9i0RvAjmZ6dQ2dxHwt2KLBfCm5+DyJql1XlpSTNDfyf333csbO/dxwmlnsf+tlylafBLBzgbcPh/Bvl6CA4OUzl/CmpXLSEtOVCfk11/fSNTmwOd20NjQypJlS9i9bSt9AyY6mqo42BLgwnPPIjPJwXMvvIrNZmLQ7GJxWQn5+Xn4vF5SU5JUXY89/HeCVi/Jlj421saYnxzitW37KC4pxhvppL7fy7zcRJo7erA6PaxZs4olC+dhNUXp6Oigs72Nu+6+nzPOv5iinDQ6WxvZuH0/c4tz2fLq6yRk5HHWmafSUbOHZ17fTVZqGl6fjznzyshL8+FKTCPR41Ranuuu+zUXXnYFjQc3EwxbqG/oxBzuxFe4DF+sC7s3lchgkI7ODjJzilh/4joKcjPVCV9pMvbuoacvSEVHPyvyk2jqDJKb5mbT1jepqa3D5UshOTmZlavX4m+pp76xhWAgiNvrVVolmzlGf18v5fvrSEh0EbOYWTBvHi63j7ycTFo6OtWXaBBkjy1WBMGuTE0dLQ28+NKr+NJymFecz7Y3NuMPO1i9bB41VVX4+wIkp2Uyf95c0lKSMZtN+DtbePLZl/AlJCpC1hUxk5uZxaKSfN7YvJWmllalWXX7EjnhhDV0NNdTU1NP1yD4bCYKiopITPTSVFdDZwBCnbUkZecrrVJubj4Z6SnDEgSnxcfBvbsor25h9ZK5bHjhZfIKCmhrbWUwAiuXzuett7ZTUFxKd0eH+lzkzymhtHgOXrcLkylGd7CF+3ZdozTAOQkL6BloVuaGkpQTOLf0K7jt44uym9UEoekfT5B8yons+9VN2Lt7SDrvFDIuOI+o00VrZS3pyxbhSU6hd+tb7PryN4h1d41IEAaC/ezfvx+T3YPHEqa6qZvcjAQam9uU6j8lM4eS/BxaGmppbusiJzudLTvKmTcnj6rKWqxWM6mZWbQ2NrBy3YmYIkHe2LqV/PkrKM5JVWq8no5WHnt6MxdcdCYuu4Xuzna1YP3dnWx5Yysr152Mz2mluraZ+WVFNLR0s3btSixEqK+tYNvBZi4662T27N1FRlYeqcnJSt1WuX8nMXsCJYUFbHzpOXIXrKEwa5QEQYSYCGix9Yu9/N//3bDzi6pNhKoIfzmBixlATAvig3DhhYZ9fqgPgtQjgjVOEERDIDb5e+4xnB7/8hf42McMwdraarQnJ275+fnnDbOCEAix+cvmIb4CGzcaGgIhDWICkPaFHIigF42DtCckQAS4YmJ+w2zw058ahEfqFMEv5g5R+6ekGGTnpZfg6quNvgoZERIj5hIhNDLuX/7SEPqigRD/i6VLjTZE0yHOj6IdkXZF8Iu5REiV1CtaDjGRCOGSNmV8gtVU80GIxdj48rM8t2kvC0sKaOzsYFHZfOwWExX79pGdk0Vnb4AEt420grn4m6rYunUny5aUUFHdSWpeHssWFvH6G7uI9nbS0tVHSekcVq89kYwkD+FITK3Pofbp8OAA1RX72bnvAC1t3TisVmKBfk4+5wwa6+t48eXX8CSlMic/n0ULynhj214c9hjRoJ+07FyCMTvLFs5TaveWumoe+PvDigSEbD56mg5QsGAd5lAv55x3DpU7trBtX41SNa9YtYaTT1xDU8VODrSHSHCZcTjdRHvaqOoIYQr3kJqeQ83+3eyu7eaKf/ow/tYG9tV2UZjpoi1ioyjJRUJaDjmZadjl5BsJ8crzz9LUE8Jn8vPCgQALUyK8VV5DXn4e9oE2BhPK+Pj563j55VeobuzEZhrkzIv+iSUlWUqbUbFvFy+99iZz5i1gzYrF7NuznV1VbaxZOIdnn3yKjDnzWbt8AW9sfp2QM4XchESsFhNBq5VVS+ZjtzuwWi1EBvu59qc/5dQPfJSG/ZvxB6O0tvdji3RiSy8jyRZgyZpTSTAHePqlzYRCIQqLSznztFNJS/YpbcjmLW+SV5DP1oP1nLN2CVs2bsTl8VBTXalO8c6EVKU9WbliJZX7dtPe0UVTYwvpWZmUzS9TGpCuniAdHX5M5gF6+gdZsng5+XlZ2O1m9jdv52DLDqKxCD5nMquLz8LnSFQahF5/J3t27aK1O8iyJYvpbKll87Z9XHjxhfS1N3GwspKBSAyXy826E9Yrk1h/bxeNTe1s3bwRR2IaFreH0twspWF47pkNhGMmbFYTvcEIF15wHvt3bqV8fxUtfWEKUn3kFhZRMqeAtqYmwrYEemq2M2BPpKxsPkWFeTgdtmEJgseeQmNNBdvLq1m2oIhnn3uR3Px8urq6CQyGWbqghPID1aw/9VQaKvfT2NyK2WojIzuf5UsXYjWbCYb7eGL/b6nqfBO3LYn+wS7CsUHW5F7C+oJ/xmYZ37Xts5sgPPokWZddTMMdd9N67+NEc1Ip+cZXSDnjdEy9fZjFMdRqJlBdzYFv/4jumgrsDqfSIAQOVAzrpNjd0cJrr27E7E6gZE4hVQf3YbK5cDtsSpUmqrwlS5djCvWqD8DgQB8mXwYFqW527txBd1+I9CQvIVsCS+bmsa+8nJbOXtauW6c22I62NpoaGnl9615OOmW1ctBJSUnB5/UQ8Hfw7HPPcdp5H8RJmE2bttAvNqvEFDJSEwgGg8pu607KZMXCEiqrKkjwJah+lJWV0NJYRdTqIS8rk13b3iC9cD5ZqQmj0yDI0wcOGELu8ssN1b0I1oQEQzCfd57xvZyUFy40TvNyKpbT9nAEQUwK8pyYGf73fw3fARH48WgIEaoioOWULURECIgIWWlDTt2i7hdiIM+LVkH8B+TULgRBTu6i2t+yxdASiCAWs4g4NEqRfoumQoS7aBBEkP/f/xmEQQS9aCVEsP/2t/DDHxrmj/vvNzQhDzxg+E6IBuEHPzB8K0Swi6ZC/A2EyIgGQTQSYvqQMQpJkjGK1kJMMaLdEIIjGgshOEIwRMswAc51w+odx6pBiEZ48fnn6Bgws6g4j9rWZnJSEqntCJNpG6Clo4uM/EL62xtIyC6hv6Oe3fvrSE9yE425SUpLwuOycKCyiq72Vjp6ghQXz2HV6jWkus1UtPhZNr/kHRoE8e3Ztn0b7T29ikAQCuJvaWP+8qXU1dXQ3uVnIGqiMCtD2YgrappI8NoIdDWzaNlKuvuC2J0uli1apEwMTz3xGHsr61mx7lRsgWZ1el97wnrWr1zA08++yNzSOby1bQcLlixnxZKFtDVWK3X/vvI9JKemU1aYS21DC+2tjTR39pPgsdPWPaCE5ry5JdQ3tmOnjwNN3aQ4rWRk55CQkEB2ZoY6Ce54YzMd/RFKCzK5/a/34ExIYd2aFezbtY2qxg4++onL8VmC1DS0KiFc39DE2Rd8kNxUL9WVFew5UMPq1as4sHsbUbtXYVtR14x4cNjMKCzyCovITrSyq7odLzFaW1twpqUrIedKyyUj2Us0FOTWW/6P1SefS7ingaeef5XihctYWpTCA48+S05hKR84+3QO7NmBLz2HfTvfIiE9h/Xr1pDodSMHpObWDszRIC/uruWDZ5xEX2cbFVXVNDY1UVNVgcOXQlZ6OnOKCujt7SUaDVG+Zx/Jaek4HXYGBwbIKyyhvaWZZNHWDAYJxaxkZmYytzSX7U2Psa3xScLRAVLdeZwz919IcmYp/4SDe7dTXlFHelauOiRVVVdh86SwdsUS5f8gJKiuvg6708fy5UuVaUJMDAf27qS6SXxE8qhq6+GEZYsI9rTz0MOPEsKMaPT7g1EuuvACutvqaWlp5UBDBzlpCRAJ4/SlkOCyE4xY8FgGiZjt6sRfWFREUUEObzY8wpb6BxWpyfAUc37ZN3HZEmlvFjNVoyKx27duVNqy0rlz6elopr6hlaKyhRTnplPf1KLMH7X1zeTkz2FuSREWszgBR6nr2cXrtX+jta8aM2ZyEhZycuEVpLhzJM5DmxjGgoCEOTY+8jhJa9dw4L9uwj4YIOGDZ5B25lmE+wfpfPoZzIGgyqbonldGONhH/d0PEmluJeuTH2XgYCU5n77iXVEMouqRRR+JxnC7PcrZJBoDm8VCfyCgvK7FCUUmNxwK0dzcTHqWqMisSoBHIlG6OtpxJ6WR5HGqd0xmi3ICEvWdbH7iQCV2NIfDjs1uJyc3j4zUFEIDor3YR+n8xcoxaCAYVE4vbpdbqd8i4TChcEQ5TFosZsLhkDqVhcMRHA6HUlPJghLHGnHkEaccee6dZQQfBDl1P/qo4Sfw4Q8bAlBMAOefb9jbRaiKgHvqKUPwid1d7OqiSheBKg59cVWyCEzRRoi6XZ4T04KQAfm9nKbFTi/1yOlf6pe/S2SBRBV86lNGNIKcwIUgiMOfkAIpu3cbWgMRwkISJAJCyMzf/mZoESTKQIqMYe9eQxsgJ30xHwhJEEIjYxGyIb4IQjg+8AGDaEikgURxSL/OPNMYq2gUxFlTCIIQC+mHjEsIgpgdhMyIVkVMCvKukBohRBLuKJoKcfYUHCVCQn4/WaFdYyQIQlw6urroD4bITE1k/4F9tHd0UzR3IY5IAKvDSV93K5X1bSxaspiejjYGw+C0hKlr6qFkbgm93Z10dXUpn5tQOKqcybKyc8nKSCYUjik77tAyEAzQ3NpCzGTD43HRUHmQwGCEzKwM9fkbGBgganFSkJVKd3ePcrTzeVx0NtcSilkYiJqVyU+cJ2ULFZNFYCBk/ByL0qcc2tzYrGb6xYHOYSMQCKoDguHYGFXOfrv27qekpJScrAwCfT3s3XeA1IxcPHZo7w2TkejE6fEyOBhmoL+blp5+0hITSUpMVJ8tq9WmCIIIRbVP2G30+f3KYVE5pQUDhCIxfD7ZS8KKR8eiEeW0JocCcSqsrK4lOSVDmQmFONXW1dHT24/T7SUjPU2RJ6w2NR6P00ZP3wBBfy+BgQFSMsSx04bZalfOyTKXfr9faUVMpummkycAACAASURBVKhy7FNjtlnx9/aqPUGcK8VZzm63K2dr2Z+cTuchAicOigEO7C/HH7GzavEClYAuFA6pfUZ8pOzuRFKSEtQ+o8IVYzEOlO+htauXhKQkHDY7eQV51FYcoLc/iMlipaCwiOREr9K4iDNeV7BJCVun1UOGt1h570tdsm8NhkLY5XMZjTI4GMLmcCibvbQvmA8ODmA2W7FL9AMQGgyyd085OYXF2M0RGjv8FOZk0dZcz4HKGjVmcRofGAxRWFRCTmaq2tf37z9AR7dfORKmqkOai/raOgZCISxW2ZdzlRnDbrfSE2yhM9ig+ui0esnwzsFiMpzDZU+22+zKuVa+d9gdao7FATeOazwSRdaJzIcQnXgRx0fBo7O/DovJSrq3GI9NfHbGH9E2izUIu2n6+yNY8wuovv4PuMxRzGsW40jLJLivksiO3USig8jKsOdkk/KRi7HZ7DRteJ20k9YS3LmL3Cs/RdIJa8a1YcvEHxmaqBbDEeFB8cUQj/8dulkODeMSpyqLRdSxY6FNR/POCARBnA0lvE9O4SLU48JO/AxEgyACUQSzmAXi0QoiMGXnE/W8hAUOLbKBDB3M0DwIQghEEIvKXuoQoiBkREiInNLlPRHqoqqX70XYisZiaB0inIWAyIletBCikYgnaxIiIvUJGRH/CdFOyJhE6IsmQ8iDaEJkrEJWpF7ph5AdISZxx0khIBK9Ie9VVxuaDMFJnosX6Z+QD/GREMdE0WhIf4RwiN+CODqKdkM0IZNVxkoQDoUNGmG2Es4YUfbhuAe3YC9q8EgsdthbXg0hFjO8ww+ZTI5c2+8bhheT0Ma3Y+ElEihmklBHCakUaI2QSvlsvTPUMiLh4uJwrjzBxxNHL59T9fm1WFS70k4kGsFils1bwg6FE769SR8Z4jcx0/jO8EYD1piKjFJ7yBGhpvG/Hxk+ODF9OVTLIRzih42hdR8Zchn/m6wZOVTJfKlwVRFuh8K55Zkj14KK+z98Ph7nZndoLamwV/le7clCXqKH19jbH1PT4QgC1eeIsX8PDWcd+uzQUMeh1wBOVJ6Ct7GNIyKojxOPIRM2awlC34EKav96N74lCznw579g3l1ORG5ylA9V2IQ1AlFTyIBKNp2cLDI/cgmO0jLFiDsf+DtF3/wa3gXzxkUQJvSDeUwqG2UmxeEE/HuxlyOfPZrxjOWd96p3uCRMY61/6HtHfn9oTR3N8I7pM+MgCMe0n7oxjYBG4JggMGsJQqi7m6pb7lCqN3dBJg33Pkikrg6TOtXFM1G9zfmiJjPusoVkX/lx+vcdZGDfPop/9F2sY00NfEymdzIaGSVBmIwu6DonBwFNECYHV12rRmCaIjBrCYKoPHv37KXmzvuwuzzYs1Mxh0RNOcxMCk+IWjE7bQR6uoi0d5Bz6cX4li8dl4pyeq4ZTRCm57wdRa81QTgKkPQjGoHZg8CsJQgyxeGBEH0Ha+l8cyuB9hYckZhyHjyyqMxgiD+CHbsvncRVi0lcUIZ5shLWTOn1pwnClJ6e8XROE4TxoKff1QjMOARmNUGISYpScW4KDRAJhpRrh/CDIymCUiCIQ4rZjN3qxOJ2YHqXd/+MWxvvMSBNEGbsTGuCMGOnVg9MIzAWBGY1QRgtYEIUJs4/dLStT5XnNUGYKjMx4f3QBGHCIdUVagSmMwKaIEzn2TsufR9CEBLmwPIfGCFJukx/BCJBePojkHkinHUnONOn/5j0CDQCGoExI6AJwpihm8UvNr0Cr34NuspnWYjnTJ9zI2kNBRfCKX8Cx5Fptmf6+PX4NAIagaEIaIKg18PoEQi2Qe0T0Fcr+WB0mUkIiDYodQXknq6ccnXRCGgEZi8CmiDM3rkfx8hjEA1Lztdx1KFfnbIImK1gejuV65Ttp+6YRkAjMKkIaIIwqfDqyjUCGgGNgEZAIzA9EdAEYXrOm+61RkAjoBHQCGgEJhUBTRAmFV5d+bAIiGlCRz7oxaER0AhoBKY0ApogTOnpmSGdU1e6hiHUC30tRuRDctkMGZwehkZAI6ARmJkIaIIwM+f1OI5KyIDcORuFyAAEWqBzH7TvgK5KEAe4FV+HxDnHsY+6aY2ARkAjoBEYCQFNEEZCSP99ZAREQxAdhHAQBrqgpxradkDrW+CvMbQH8ozVCYuvhpKLwWQduV79hEZAI6AR0AgcNwQ0QThu0M+ghoUUVD8JDa+Cvw4Gu94dAikx9flnweKrwJU6gwavh6IR0AhoBGYmApogzMx5PbajEt+CvXfCgQdB0vW+q5ggZSEs/xdImadvtDi2s6Nb0whoBDQCY0JAE4QxwaZfeicCMeith02/gI497wbHnmj4HeSdqhPw6KWjEdAIaASmCQKaIEyTiZrS3RSHxL4G2PobaH3ziK6aYcEVsOByw0FRF42ARkAjoBGYFghogjAtpmmqdjIGoX5oeQPK74LuKnAkQ6AZYhFDW5BzIqz7MZhtU3UQul8aAY2ARkAjMAwCmiDoZTE2BCIh6KmEmmeg7nmwOCDnZMg/Hbb/yYhiSJkPq78LvvyxtaHf0ghoBDQCGoHjhoAmCMcN+mnasIQrDvZA/YtG5EJ3JaQvgzkXQcZysLqg4XVDo1B6CeSeok0L03Sqdbc1AhqB2Y2AJgize/5HN3rxNeipgn33QOPrYDZD8aVQdB64Ut52QAwHoK8JPFkGYdBlyiAg/C4UgcgxvKZbEmfaLGAxjQ8G6bLq+zG8RFS6bJfLLU0wzu6Pb/D6bY3AcUBAE4TjAPq0bFKSIDVvhh3/A/0tRtjiki8YYYv6XoVpMaVCDio64e4dUCupKo4RSRBycH4ZnDsXrOaxQSV9re+Gu3fCgfZj2/eL5sMZxWDXN2CPbfL0W9MWAU0Qpu3UHaOORwahuwIqHoG6DeBIgcKzoegCcKfrnAbHaBomoplAGH73KvzHBugfnIgaj64OOXnPS4d/fBqKkozT+GiLaA5u3QrXPANtfaN9e+zPS1cXZMKjn4L8xLH1feyt6zc1AscXAU0Qji/+U7j1GAQ7jOyIlY8ZYYypiw1fg8yVhlOiLtMKgd5B+Okz8NtXIHqMtAdxgFJd8NzVsCRzbEJ2MAy/eRn+43noO4bkRvqf4oKXvwjz08bW92m1SHRnNQJDENAEQS+HdyMQjUDXfth/n3Gfgs0LxRdBzkmGX4G2xk7LVTMSQZCT/Uhmh6HPyOk6zjOUUmCIZuDIekTIbphEgvB+fY/383AfD90ndvj3QwYyHG/SBGFaLnfd6QlAQBOECQBx5lRxKK9B1ROw728w6If05bDg05BcqnMZTPOJHo4giJ9pogOcVliaCTtbYDAC4SjYzOAfgIwEsJugshOW5sOuOvC5ICsBDraA1wFzkt4mCyJkK9uhfUjW7ckgCBYzJDjBZYXlObCzEfpDhiOjOBYGQpDmApcFqvyG9kLGKWOq9xvjFp+MBVmQbDPMLuLf0H2EhkIThGm+8HX3x4yAJghjhm6GvSi+BocjFF4Duw/mXACllxoaBF2mPQLDEYQ0L3xhDazMhBQvdPRDaxC6+sDjgFcqYWkuWGLwwC44ZRE8vxPWFxhWph21kOSCVZmQmWhER1QNwMs74YWatyGbDIKQlQhfWAdL0yDFA1390NADtd2QaYeKbpBnPGa4txyuXmX40/aFYW8rHGyGTS3wrZMg0Q7pHthWCze/CU297+y7NjFM++WvBzAGBDRBGANoM+oVCV0MtBq+BlWPQaAdMlZA8cWQtkTfnTCDJns4guBzwieXwUl5kOmDRj8090FXEJK9sLMJEuyQYIMdzXDGYqhqhDU50BWC1k6o6oZ1BVCcAhKB+GYHPLMdNlRNLkFIdsMVq2BNFmT4oLkHDnRAdwBSLeAfhAEziP/D9hY4Z65BAlp6YU+z8f+AA87ONTQiPgu0BOCvW+ClWk0QZtDS10MZIwKaIIwRuOn/WgxEa9C2EyoeNtIlu9JhzvmQdzo4tUfW9J/jd45gOIIgavqLF8G5xRA5lB+h2W+YB+ZmQG0AkmPgs8Kb9ZCZB28dgLPnwIAFAr3Q0gfLiyDbaeQ62N0HG44BQbBa4LKlcHKeYd4QvwchMQNhmOcBm9Xoo88DB1uhNBXsZujpNzQIfeJqY4EzciDTC2kOI5Tyd6/A3g5NEGba+tfjGT0CmiCMHrPp/4bspAMdUPkE1DxlaBCy1sHcj0JiMVid03+MegTvQuC9CMLHlsMl86G1F5KcUN0JtX5Ymg3PVEOWBTr6oDcMq4qhtgnyk2B/D+R5wR+AMjFDRAyC0G6CDdvguUnWIAgB+OcVcH4xtPVDihs21ULnAKxKgb1tYHaAPwoV7XB2MaS7Df+I6m6IheHFLvj6KsMHweOExm647w3Y0vS2T4X2QdAfptmKgCYIs2rmxX1brmZugDdvNCIUnEmw5POQd4ZOiTzD18JwBMHrhEuWQLYDHiuHpQWGJuCtBqjvNez5KwphfgK8VAU9gxCIwMeXQqoDWv2GWl5MDr0hI5LBYofndsNr9ZNrYkhwwaWLIcsBD+yBk4oMh0XRdHT2QXsAFuTC/BRD4J+YCzYT7GiHFDtsOAABJ1w2z/BTcJvhsX0wMAiVQiAOdV8ThBn+wdDDe08ENEGYLYtDQheD7UaK5O1/NDzMxNdg/hWQVKxDF2fBOhiOIEh4oFnCG6OG/4AU+VnK0FwJQ0Ma5W/ys3zJO/EUyvHnxRHQJBasITGDk+GkKO1LX6XdeFNqLIfMDUf2U5I4xoYJxVTvxIwcB8Plh9AEYRZ8OPQQh0VAE4TZsDDC/dC2HaqehOYt4MmFonMh7zRwps4GBPQYMRIMSRbF618ywhiPZREb/7Ofg4XpY0s2JKGX4htw7QYjTPFYFun7C5+HstSx9f1Y9lW3pRGYSAQ0QZhINKdaXcrXoBMOPAj1Lxm3MIoDYuF5htbAbJtqPdb9mUQEJD/Ag7vhl88bjoXHqogj5Klz4IYLIdU9tlblgqanDsDPNxg+EscqEaTkiTirBK4/3/BxGEOW6LENWL+lEZgCCGiCMAUmYVK6EAlB+w7Y+b/QUw3ubJj/CcheBzbfpDSpK536CIiZQS5qkoRCI2VNnKjRiJDN9hmRAnHzxVjqlj6LT0TvwLHte04CZHjG1/exjFe/oxE43ghognC8Z2Ci2xdjskQoVDwGBx+ESBCy1sOiz4AvT/saTDTeuj6NgEZAIzBDEdAEYcZMrKRJDkDHTjj4CLS+Cb58w5xQdL6+XGnGzLMeiEZAI6ARODYIaIJwbHCe3FaiYeitg5pnofZZiIYg5xQj6VFiqfasmlz0de0aAY2ARmBGIqAJwnSf1nAAGjdCxUPQuQ98hTDv45C+DByJ2qQw3edX918joBHQCBwnBDRBOE7Aj7tZ8TAL98Leu+DgQ4Zbd+E5sPizxuVKEoyui0ZAI6AR0AhoBMaIgCYIYwTuuL0mxCDUC+07YfefwV8NCcVQ9lHIXm+ksdNFI6AR0AhoBDQC40RAE4RxAnhMX5dsiHIlc83TUPOM0XTBWYYjYkKR1hoc08nQjWkENAIagZmNgCYI02V+w0FofA0O/h26KyBpLpReCpkrwTrG7DPTZey6nxoBjYBGQCNwzBHQBOGYQz7KBiWvQX8T7PmrcY+COBtI2OKcC8GToyMURgmnflwjoBHQCGgEjg4BTRCODqfj85RoDVq2wq5bjWyIiYWw6CrIXKNvXjw+M6Jb1QhoBDQCswYBTRCm4lSrvAb1xuVKNU8adyZknwjz/xlcaTp0cSrOme6TRkAjoBGYYQhogjCVJlQiFORCpYZXoPpJ6D4IaUsMJ8Tsk8CiL1eaStOl+6IR0AhoBGYyApogTJXZVREKlXDgAcPXQMhC6SVGlIInC0yWqdJT3Q+NgEZAI6ARmAUIaIJwvCdZiICkRm54FXbfBn2NkDwXln1VX8l8vOdGt68R0AhoBGYxApogHM/JjwxCby3svx9qngNnEhScB2WXgl3SJOsynRGIxWJEo1E1BItFa4CO51xGIhHVvNlixoTpeHZFt60RmDYIaIJwPKZKQhcDHdAkeQ0egr4G4+6E4oshY5W+efEYz0mUKDGVqxrMmNX38n+8DP37aLoWGgjxxtY3sFqtrFq1SpOE0YA3gc8KSauoqKDiYAXrT16Py+N6V+1CGuRffB3E/z/absh6mcrEQ8YT/3c0Y5rq4zmaMehnxo+AJgjjx3B0NUiEQsdeqHgEWraAPcHIa5Bzks5rMDokJ+zpCJHDgiG+yQ/dIIUgyL/Rlt7eXv5w4x9oaW7huv+6DqfTOdoq9PMTgEAoFOLuu+9m4+sbuebfryE5JRmT6d1ahPjcj5YcyHvTQaDGie7RjE/GM5QkT8A06CqmIQKaIByzSZM7FPoNYlD5KAQ7IWstzL0MksuMUEZdjgsCRxKE+GkyLjCG/n00Hezs6OSa719DbU0t99x3Dx6PZzSv62cnCIG+vj5+fM2PyS/I5/Nf/jx2+8TeVzKcMBXz0lQt70UUhpImTRCm6uwd235pgnAs8JYIBfE1eOsmaH3T0BrM+wSUXKJDF48F/u/Thmzkh/+ZYocUzW9TBHl1rAShu6ub635xHU6Hk+//4PtKgzDcyfU4QzDjmx8cHOSuu+7ixRde5OfX/ZzUtNQJm4fhtAfhcJjOrm6CwYERsY3FogyGQiM+Jw+IzkN8WcwW67i8KAyD2hCNmAkSExLwet2HcdEE4aimZMY/pAnCZE6xnCKC7UaEwsEHIdgBqYug7OOQtlSnSZ5M7I+ibiEH4rwWDAax2WxYHIYjYVy1GvdHGKsPwsDAAHfeficvPP8C//3f/600CGazvob7KKZmwh6ROZb5vfnmm9m3bx8/+fefkJicOGEE4UhBKu3tLt/Pw489TXt7x4jjCIXDtLc0I0RhpCLk0utLwOPzTYi/Q1zHYTabWLxoHh+88Bx8Pu/hz4A2MYw0IzP/75ogTMocx0AiFNp2QNUT0LwZ3JlQcC4Ung2OpElpVVc6OgTEea2uro5HH32UlStXsnLNSkzmt7UH4yUIfb193PjbG3l+w/Pceuut5Ofna4IwuimakKeFIPz5z39m69at/OwXPyMlNWXCCIIFyzuEtaypl1/bxKNPPkcgGByx/6Ld6GxrI3Yo2uX9XhCCIORAEYRhfChGbOx9HigoyOWT/3QJ6WkpmiCMB8gZ9q4mCBM9oSpCoQ2qnzKuZZbvc0+BORcZ+Q0sjoluUdc3RgREe7BhwwZ+/etf84EPfICrPn8VLpfrsMOibP6GMnbk091wXQgNhrjvnvu48447+cMf/kBRUZEmCGOcq7G+Jif6/v5+fv/737NlyxZu/P2NZGRlTIiAFSopa2RoEYLw4qubePypaUYQ8nP55Cc+THpaqiYIY11sM/A9TRAmbFJj6qJFug7ArlugbRvYvLDoc5Cz3vh+gln/hHV9llYkm/muXbt4+OGHKSsr47wLzsPr8R4mBLL5i//BWItoEG763U2U7y3npptuwuv1aoIwVjDH+J4QhO7ubr7zne+QlZXFt//t27iH2NrHWO17CtHhCIKo8M1mi8qJISYmIaZxJ8bhNAiiHZDnlH9MLKqSqko5UoMgPyf4fHg9Hjo6OwiM4PPg8bhJS0mhq7ubHn/v4T5I3QX5eVz+iUtIS0vWBGE8i2KGvasJwkRMqGgNQr1Q/xJs/xPEIkZeg+VfA0/2RLSg65gEBGQDllDEbdu2MWfOHHWylEQ6UuK5EMaqPZA6+vv6ueV/b6Grs4t/+7d/U9oJ7YMwCRP5PlXGSeC//uu/0tXVxd333k1eQd6EaBCONC9IN4YjCLnZWWRlZlDX0MiCeaXs2LWX9o5O1esjCYKsj7klc3B53IizY1VlDb19fcMSBBH4yxYvVGtK6tny5vbDibmOhMTpdLB00UL6A/0kJSayc/deurp7Dj9WmJ/HFZ+4TJkYhBRrJ8Vju06namuaIIxrZg6FLnaWG+GLDS+DrwgKxdfgHO1rMC5sJ/9lIQg9PT3cf//9LF68mBWrVxwW4EcTKz5SDwP9AW695VYk3FEIgoTX6YyKI6E2sX+XOd6zZw/XXnutclK874H7yC/MHzdBeC8BOhxBEIFstVjo7O4mIz1NCXy/v3dYgiCC/KT1J1Df0IjH7aKuvoGWljZ12j9Sg5Dg87Jk0XwGB0O43S5e27RVfT9cETJRVlqs/CKSEhOoqa2nobH5XQQhIy31XTlBJnZGdG3TCQFNEMY8WzHob4Wqx6HueRjogtxToeBsSJmv8xqMGddj96JsunJKEzODnKxWrFqhhLjYlsejOYiPwN/jV06KUp8mCMduXo9sSU7XDz30EL+78Xf8+a9/HjdBGM73IN7mcARB7PqJCV5aWtopLMyjtr6Bri7j9H6kBkGiaVYuX0JffwCr1UJNTT0dnYa24UiCIM/m5WTj9bhJSPBRXVtHfUPTO0wH8X4JMc3JykSIgs/rwd/bR0Vl9eEQy7gGQQiCLhqBOAKaIIxlLUg2xPadsPMW6KkyIhTm/TNkrQa771DE8lgq1u8cawRkQ5cwxHvuvodrf3ktycnJh9MtH5l+ebRaBdEc/OI/fkFGegbf+ta3VCilNjEc6xlGhTlKmOntt93OrX+9lQWLFoxrHoYzLbwfQfC43bg9LmVyEm2CmBeCA0aOhCMJgpAAecZiNROLxpSmIZ4nYbgoBhH8op1wuZwqRFEIQvz+jyORlrVns1nV86J96OzqOdwPTRCO/bqcDi1qgjCaWRJvocFu40pm+ZJbGEVrsOAz4M3RToijwXKKPCub6dNPPa2cCH/1219RXFyM1WJ9R976eLjjaAiCaCfEOfGOv9zBpZdeyurVq8et1p4ikE27boifyTe+/g3uu/s+rv3FtVz9pasVWRtLeT/tgdR3PKMYhECMNYOjJghjWQ0z/x1NEI52jsMD0LELyu8xIhTE+bD0Eig4B6w6x/7RwjgVn2tra+O6666juqqaG266gazMLNXNuJlhLARB3u/199Ln7yM9LX3C0/tORRynap+EIHzzG9/k0Ycf5YY/3sCHPvwhLNbR3a6pIgqiMSxmCxbTe78rBOHN7bt47MlnVaTASEVMXO2trUeXB8F8KA+C1zshiZLifRNiUVJSxMc+fBHJSfoW2ZHmbDb9XROEkWZbIhJ6Gw0/g8p/gJgXsk+AuR+FhAJtThgJv2nwd3Em/NEPf8RLL77EvQ/dS35e/qhuvhtuiNPlAp9pMD3j7qKYGCQPwl9u+wv/c8v/sHrt6lGbGIKBIJUHK8nMyCQ9Pf19tUFCDMr3H6Snxz9i36PRCH39/Yp8jFTMJhN2h2PCyabJbCYvN4viwkLl96CLRuAweYyNVSc1GzAM90PjRqh6zMiKmFgKpR+CzLXg0Ex7piwBSYn8x5v+yJNPPsnNf76Z7GwjNHU0JgX1/KGkPGKicDvdE3rKmylYT9Q45OQtd1043U4juVUsRltrm8qEKX4kcsW2FOVwKn4mL7zAD77/A37/379nwYIF6ncOp0MJZgltHSkzYXtbO3fcfgcrV6zklFNOGTEa5b38AI4cv6IFo7jYaaR+jhVfqXey6h5rn/R7xx8BrUEYbg7kAzvQAfvug5qnIByAwvOg7GPgSgezsfnoMjMQEOGyedNmNm/dzGeu+gwOh8NIejW0vPt24Lf/Kpm1oxEVzrjtrW0sX76czPTMmQHOFB1Fc3OzSpG9/uT16pbGV15+hR3bd7B06VJOWH8Cbrdb9VzdJxCDjRs38tV/+So/vfanrFm3RjkHCol4+O8Pc+4HziUnN0cJyOGEpAqV3LWHhx98mI989CMqqZZ2Np2iC0N3a0IR0ARhKJxCDOQOhe4D8MYN4K8GXx4s+QJkrob3sT1O6Kzoyo4pAiIAqquraWxuVOpndaiLGAxBTphyKlUJlIYjCZJAMxJj185d3PJ/t3Dh+Rdy7nnnagEyiTMo2oM//vGPPPXUU3zmM58hMysTSYSUnJSsfEkWSvIg69uXYpljZiTkVCJJCgsL+fRnP019bT2bNm7i19f/ms9d/Tm+/JUv43A51Fw77A46OzvVPR2ijRgIDnDXHXcpknHVVVdx7rnnkpg4cRc+TSJUumqNwLgQ0AQhDp/4FvhroeYZqHjYcDzMOQVKPgS+fDDpW/jGtdKm+MsidIIDQQbCA0otfWD/ARw2B+Xl5crksHjZYqKxqLL/xj3gJcRMyEVHawe3/+V2Xn75Zb73ve9x4oknTvHRTu/uSbjgl7/8ZWrrapk3bx5paWk8+OCD6n+586K0rPQdBMEUNdHU2KT+tmf3HpYsXYL4nbz0wkv0Bnq54IIL+NCHPmTY9s1QNr+MrZu3qvDInu4e6uvreeShR9hbvpekpCS+/KUvc+FFF5KamkpCQoImg9N7Oenevw8CmiAIOOJr0PCakQ2xaz8kl0HxByFrLdg8egHNcATEXlxRWcHjjz5OU3OTMjFIbgQhBBUVFSxatEh5vktUgqiiMzIzlN1bBFF/b79yfpP7HM455xy+9rWvHfZhmOGwHbfhRcIRdfFS+b5yJdSFkIk2QTIlSkKqpJQkTJZD6p4Y9Hb3ctddd/HAAw9w1eeuYtHiRSQkJlBxsILenl5F+E444QSsdqsiCFKn+KWIGSEcCitzhJgYxIwh7R48cJC83DxOP/10Lr/icjIzM5V2Sdvwj9uS0A1PEgKzmyDEIxT23Q1Nr4s+2bh1UVIlS16DYXXKkzQTutrjhkAgEODaf79WaQHkQp+Vq1cal+pEIxzYd4A5xXP46Mc+qi79KZpTRCgUwul0Mrdsrkp+c9v/3aayMfp8PqXGFhu1LpOLgGhuRHDLxUcyF+3t7SqlslzbLY6LIuilRCNRXn35VX527c8488wz+eo3vorbY/gniG+CkA3RHim/E+EU7+FrImYkuRVSzA4P3v8gu3bsoqqyiksuu4SP/9PHycnJOewYGa9DNFG6aASmMwKzDfJwTQAAIABJREFUlyCIr0Hja7Dzf6G/GRJLYOFnIWM5WOzTeU5130eJgMTJf/5zn1fagx/99EdKBS1CR4TQ048/rVTNH7rsQ4czIYrG4fCNe9EYwf6gSrb0u9/9jh//+MdKEOly7BEQsiDETiUMOuRlKqTuN7/+jTL/SDKsufPnKj+DsRZZE0IQRfMgcy6RDSmpKXz7299W93moug+RkzhBkP81WRgr4vq944nABBOEkWN5j+dgjVND1MhrUPEQVD0BJivknACLrgJnyhTMhjj2zey4Yz1NOiAnw+/+23epqa7hT7f8ifSMdGOpxGLqhCkHwXjY3LuGpPxaIzzxxBPcd9996lph8aTX5fgjIITh2Wef5YYbbuCiiy7is5/9LDaHjZhpYvYpMUOI6UE0SEJErrzySuYvmk9ySvK7MjW+F0EYSh7GSiLihDW+ZuMZFY/8X/4uvzuaEMw40Tr+s6h7cDwRmCCCEIOOfdDfdDzHcnRth/qh+nFo321oCrJPMhIfTcXQRXsCpMwD6yGV6NGNUD81SgTExPDz//i5si1Lpj1xPjvqEpOM21E2bNigTqhiA5c4eV0mDoGhqVpkrkTweyWboOn9yXNTUxPf+sa3qK6t5vrrr2ft2rXqdD9RBME4b8Soq6ljw3Mb2L59Ox6PhzPPOlOZqTxejxE6iaHReFd/D/GUoX+LEwb1uyNMFEN/FtOJXF8tt5E2NDSQnZVNd0+3ur5csJGxFxUV0draSoIvQREYKRLxsXf3XsKR8HtOkPRz7bq15OVNzLXYE7cSdE3HGoGJIQhyKn/1GuiuALv3WI9hdO1JtEJIUqCKKtBmRCtMxQgFuefBngjL/gWS545ujPrpUSEgJoRf/devVGjbNddeo3wJjrqIBiEU4eGHHua2227jJz/5iSGIJrCIrT1uJz/yZKdSAB9KtHO8k91IH6UcqW2JJ5BSdn5Qtvx4n+PjkXfkZCuncnEalO8lSkR+fuONN1iyZImKIHjqyafYsnkLZ5x5hjIFSZ3yrEp85HAonKROMQNIXoSrr76aFStW8KOf/Ih58+dNiluRkASZo4b6BnXp1+5du5UW6cT1J5KUnKScGCVHhtfnVUK9q7OLvII85cMggl0EvGitxCm2u7Ob7NxspZnIyMpQIZYSgRE/9cdJghClV195lZbmFvUlgl9wFZ8Ym92m2hMB39XdpSItJNGT3WFX5Hf/vv3I+5I2WrCSdgV/wU5+J+//8le/5Pzzzx+RhE3gMtdVTUEEJo4gPPN5SCqBBVdMwWEe0aV45rIRTiDHdSA9lbDzNljxdUjXKuuJmIu4MB2a5EY2XtkY7/7b3fzlz3/hlttvUQ5nR12G5EEQVfbll1/OaaedpgRg/NQWj5kfeoJUG3M0ejhE7sg+xQWkkJd//OMfNDY2qnrFN0Ji+UV4SpE2RIiKcBDve3GyFE1IR0cHxSXF6u8iWMVjX1TfcrqU56VI3XLKFMc7IUVKEMWiqo662jr1XktLixK8chpub20/nBciOTVZ+V5Iu1LEobO2tlYJIRF6ygVAPPsxqau0xQSzctVK9b5EiwSCAfVealoqWdlZKkRRkh+Jo6FcmCUn4YyMDCOi5IUXVMRASXGJEor33XufErqFxYXqWelDW0ubik4QYStCsLqmWjkuSrTCD370A5avWD7mC5qOdi3InAtG5XvKeeaZZ3j66afJzc1VXzIPBQUFvPXmWwpXGW9HZ4eKhpHoCyE7ks7ZbDIrLYQIcZk/iaKQ55S5K2Ik4xInS1kHfr9f4VtQWKDIrawLwVM0GZKsa//+/SxbtkytMyEvi5csVvVKGOfunbsVeZG+CH5CWOrr6klJSVHrZNmSZWodjKSlOVps9HPTE4GJJQjpy2D5V6cnElOt1137YNN1miC8x7zEncX6+vpobWk1TmedXSqDnpym1DW4Vqva4OQ0KQKysaFRCSHZUCVcUVLzSoy7CEqxI9fU1HD73berzfqoN0YxMYSjvPjCi/zgBz/A6/aqfP2iIpbNXP5PSU5RRECS7ojAkk1fMgBK2NyKlSuwWW2qT3KBkGzmknRp+7btnHHGGTzz9DM89sRjSnCL4JMTXmlxqUEsTNDW0abGJwJo/rz5lJSU8MD9D9Dc2KwSBokKWt6TU62EZ0oyIRHYImzk1FtaWqqwkVOmCHgZtxAkSRwlQkwErggkIRIiQHr7eklMSFQ4i3OeCHIRMCLU5LIr+X6oVkDuLZA+yLgK5xQqATg4MGgIN5MJX4JPYdTS2oLMpZACISXSHznlxoWU/E1wFOIhJ+bmlmZy8nKU8C0sKFTji9vXJcRR1sfA4ACnnnIq3//h90lJSzkmn3BlIoiakAvAbrzxRnVvgxA7wSQ7J5udu3aqSBiiYLfZ1RgF47J5ZYo0JSYnGsQr0K9I0NB1KERW1qysdSF68SJJvGS80oYKzQyH1doXM4S6lErW6BAtgaQCFxPDYY1TDJUIbKjzrWSgVFkodZnVCGiCMFWnXxOE952Z+HXKkvxGBKoIMxFQiUmJlJSWKCEmG7P8vHfvXm787Y1KqMhNjUIgRBBJYiQRenLyFpIhJ6pvfvubfPCSD44q+Y2EwEmK5V//+tc01DWoTVw2d0nGE7clywlbyIGcEuVULEJd/rfarIQGQ+rUJpu0CFAhL3Jh1N49e9VmLydoybmg7hlISlZhlCLM5bQnY5OxPP7448oRTzb1O+64Q53oTz/tdE457RR1chahO2fOHMPDPxZTiaAEB+lHX2+fIkdCqqQdwVE88uWUKkWETXFpsRJmQnqEaMhJecXqFeod0VaIinzrpq1KlR0vcteBhIKKQBeMV61ddVjgye+E7MiJV8YvYaKifi/IL+Cm39+kshUKJtIPEXJiU8/Pz8dis1BdUa3GLWp8wUrGJxoD0XrIqTs1xfAhkSRHImjnLZj33k6mk/D5N8UMjOPaFdESKEE/NIxSNCyHfBAOR11MIX9kTRAmYWFMwyo1QZiqk6YJwogEQU5eDz/ysBKicsIUgSxOWff+7V51wl2xaoWy6cpzImAkn8HVX7xaJT6Sn5cuX6qEoZx+RYCKoF28dLE6vY62yEla6lLCqrKaufPmKo2GnBTlVCen9dT0VCVM5fQnmozcvFyl7hfBKwRHmQ1M4HF78Dg9bN26lXvuuUeRj4s/eDHnnn+u6qO8L+9IW5IEqKqqii984Qt85srPKO2EEBUZ/51/u1Op9YVYSPvx+wlkbEIKlP0+FlWRGlKfatvjUd+LY5tKL32oxE+yIviGnmoPe8ofcsQ78u63oe8deX/B0Lri5p/W5lZuu/U2lV9AiN7hsMWh7cYMPwZRqwsecvL97fW/pXxvOd/94XeVr4FqV8w/wzkHjnZyZ+HzmiDMwkkfZsiaIEzVdaAJwogzE4lFGAwPqudEMApRELvz9b+8XqVGFnW7qLfFhCAJj0486UR1UY9oF0QwikCOq1Xjwmqsl/DEBZwSmIduCBQVr7/LUKWL4JXTbxQjh8I7BG1M/GSHHB9j0NXexQ9/+EP2le9jzZo16oQtqvJ169e9LaAP+T/c8NsbuP322/nud7+rSIM4Sgrx+Mfj/1Cq6+lUZB6F5Il2RDQQ71UkUdGGZzfw4cs+rDQhL7/wssJw7Qlr30GEptPYp1JfNUGYSrNx/PqiCcLxw/79W9YEYcSZEWEr/4YWEfhymnc6nEp9H7e/ihpbTsxDT8UjNjCOB4QABPoCKgROtBuiHg8MBJQwE0e+91ePQGNdI5/85CeVE97qVav503//iet/cz1nnXfWuwjC5s2bufl/b1ZpoUWwbtu2TXnQ3/j7G5WJZToVwU1MRqIlEb+M9yJsG1/dqJw3P/u5zyqb/tCoiOk03qnaV00QpurMHNt+aYJwbPE++tY0QRgRq+EIwogvTfYDUcNpUTQXb217i+1vbeeWW25RTn6iFv/2977NWWefNaJNXGz0X/zcF/G4POzYuUMJwD/8zx846ZSTho2nl9C/7337e8pUctLJJ3H5py9XjpBH7Ww52biMon4xHXS2d1JQVPCeOImW4YXnXlBmpMKiwhHxHEXz+tFD12RrJ0W9FCadIMiJTjyiZaOSMJ/4iUBssKIGld+9VxFPazl9SQiWbAhyMhRHK/mdhPKId/bcuXPf16FMvKXlRCXOWFLEviw3wInKd0pvnpogjPjpnHIE4VBOBLlGOG7zf+2115S/gTjciVbjxJNPVCF38TDF9xqkrNd77rqHW2++VWkcxAfhE5d/QjlSDlfkIinx5BeHODl5i0PkVFnf8dwEozHfHOnrcOSYZe944N4HlJPpVZ+/SuGry8QhoDUIE4fldK5p0gmC2H/l7nZJdiLZzCRsSUiDqAfFE1uubR1uI5MNQu5fFwcz8c5+6aWXOHjwIJ/61KfUta0SRnTeeeeprHXvt9nu2LGD73//+ypGWDyphTDIaU7udZdrfKds0QRhxKmZigRBnP++8qWvcNZZZ3HKqadQWVXJwkULlepfnABlrR6toBSHRslNIGFpYpoYSejH/SnGSwyknvH6ZMQnTxweN2/crD5/ohEYb9/i9QrpePjBh5Vj6JVXX6ni+SXUs6WpRYViCkkSzCeqvREX4wx7QBOEGTahYxzOpBME2SDEq/r/t3cu0FFVVx/fM5m8EyBAIBDeDyG8kVep2FoVpVArCCjVWq1WWxWtaPuJfPgCiwJLsZ9aKI/aUixY0fhaspZV8NNKWcIn6GqpIYGEJBAeeULek5n51n+HG9MQMhMyd3Lv5D+aRTK5c+4+v3Nz9//us88+r732msyZM0cee+wxvUkiOzs7O1sWL17c7B8xblJbtmzRyMF9992n0QaIDcwj33bbbfL0009rJED3cG/hBWECQfHwww9rxAHhS6xPxhrz+fPnW/cGQoHg95K2mkCAUz175qzMmzNP59BvvvlmmX7tdOnU5dzTPJIRke1vFOqy4DJzRC5QihdP5lhFoMsr21BQDFMe615ep2L8jrvu8Bs58Tvo5w7A/SEvN0+XSKb2TdVcjze3v9lQ7hirVSZOmtgm2wO1JRyPo0AIx1FtfZ9CIhBefPFFzSxGKdpnnnlGd7t7/fXXGwQCKrlBKGAtN5YtbdiwQYvKYOkW9l+HQPj2t78tn39eH7pdv369PoXdeuutOv2AAjWoVoeIQ3p6uixbtqx++1YR2b9/v2zcuFGeeuopXUoGoQGRgspsM2bM0F3e7r77bp27xdrrlStX6pMH2kZVvFmzZsnChQu1fC6Oa8vNslXDQ4HgF5cVBQJ2+Ztz/Rx9mkXEbNp3p9UXq8G8rg8bAYhGsXD9xibEmlL61y+4Fg7Ayosd7+2Qp5c9LUseXyKzrpsVcMSjuWbhyFE7IftIti65DHaSKHI9XvvLa5qkOXHiRP27Ru4FajWgZDBfF0eAAuHiuIXbp0ImEJCNDae9du1a3dQGzhzrt7G5DZw3nu7hgPEedkVbt26dHDhwQB33/fffL++++67885//VGeN+uqICuBpB+3NnTtX94GH458yZYpGKowX1pIvWLBAz43IBaIQV199tW7LiyVxEB+YAsG0w5/+9Cc9PwQG7MPSMWSfQ8DAZiwhC9mLAsEvaqsKhHk3zNPcmttvv11GjxutUwP68orWSMC20CjidN3s61q19bBRjz/QKQq/AJs5ANENlOHd/8V+uebaayS5Z3JQRHHj/SIuxq4LfQbJnL9e9Gvp07ePbrmMBwuBHrNQ0aFg9jdUbVEghIq0tc8TMoGANekzZ86U559/Xp00yrmichocNJw+pgBQGQ03Qfyhp6WlqVPHFAN+/84776hAgFiAQIAwwLwjMsQRPcATPj73yiuvaKTAeBm5DxAdOA6CA2IDNcoRBkay46pVq/QpKSsrS5YvX65iADc0TI188MEHKlZgW8iiBzCeAsHvX47VBAKiA1ipcP+992vxIVQz/PFPfqwbC+FptqaqRrB+H5URkTsz8VutC4HDGWIKA1UNzbwWG9d0uNjz+HxeDf83FTNIPMZ7rsjIoPQBEcHdf98tgwcOrk+CRtlhB8ojBWdLZ78XYZgeQIEQpgPbym6FVCDMnj1bn8ZXr16tmd1wuosWLVKR8OCDD+oGIxAI+B4OHE/sLQkEJDwieRE3XNx0sDIBAqJx0qIxxfDkk09qXXS0j/yHzz77TM+BAjQQAvh8RkaGToFgSgQ3eogZRCBgI8TNxd4sWzkm9YdTIPjFZjmBgE2LPB5Nylv78lr9d8HNC+S222/TPQMgRrHrIxwZrqeU1JRmn3QvlMFfVlomuUdzZfiI4Q3L+kJ6TfodkW8OKCkukn1792oBq/p9AhzijIgQd22tpPbpIyNGjpKoc9OArWi22UMRSUSJaqMSZVvb4+exKzb3YuB1IBJygQDo2OUMT/tYhYCnd3whK/mee+7RKAEqwm3evFmdM0L+DzzwgLz//vvnRRCQ+AQBgSkBTEfA8TfdgQwRBDh8iA7kFmBuGIIANd6xnekvfvELjRqg/C5yG5BUuXTpUtm6davusoZ8CYSEEUVo1S5/bb26KBD8ErSiQIDREAmHMw/Lls1bZM+ePVrRESJ49+7dek2jANLUqVMlMibyPIGgO+/lH5eY2BjpnvxNJAzt4nfYBhjbGF951ZVyuvC0Rssw3241oVCQny+bNm3UPR5gG/5W4cAjXS5JSxshV15zTeu21fZ7NfCAYBKgQAgmTfu2ZbpAwHQCpgGwzAlPTXhSRz0DPJ3jhoEEQ4T94ZyxJSxyAZCwCIeNJ3qUjcV7l112mf6M5YmYjkAyITbEgbDAlAB25Xv22WfPy5JGDQQkHOKcuFEhioCcBMwPoyYCfo+IBm5kECyYvkDYEudYsWKF3txhGyINa9asCV0eAgWC378qKwkECEvUIkC5X5RyxrWNHRnffuttmXDpBC1ehF0M8bRrbGPsizg/DI6nbdT5wNJGiITGLyTovvzbl2XDug3y0K8fUrFQeqZU1q5f6786o1+awT2gvKxM1qx5Xqs74m8PycT4e0tMSJARI0bI939wnXRBvkAzL0zDYLdBLA8Nad5PcBHYujUKBFsPX9CMN10gwFI4cTjnxqF/vIeboXEDwFOXUVDF2KbX2NIXbeCz+Bn/GtuZwpEjb2Dbtm0aDcBKh6ZPUnjqwk258RpxnNOYG0WbaA+/x3nxvvEejkN7hm1YUhmyJzUKBL8XuVUEAq7DD3Z8IG+nvy3jx4+XufPmSnJKstqPqoq6S2OEU0sv/2P3P/SaR/Jr566dtcBPoNcUrstdH+6Su+64S2b9YJZGuHDdvrPjnYadF5sKCmT5wzkbq3r8Qg3kAJ9IRWWF/r1cqF13dbX89rcvyMGDBzXnyFNXJ3Fxsbob5chRo2X23LnSrVGukHFa9HHtS2vlSNYRLQyFzbMCtT1YdSACQRDux1AghPsIB9a/kAiEwExp/VHIY8DSSdxw77jjDk1aDJsXBYLfoYRAwIZNeAXqZP022toDfKLbMi97cplWMUQODPIEkC8wdtxYdXDuOreumEGS7J7de3S6DFNnqKi48IGFraoCeOjrQ7Lq2VVyYP8BKSktkRtvvFGWrVjW7JN2TnaObN2yVaZ9Z5qWaA7W6gcI5t2f7tatlCdPmazVHc8T5m63/P736zRCV1JcKj6fQyJdMRIXHyNjx46SeTfdKCnNFCqDQIDQenXzq7q51p133RnQfhL4XM6RHOnaravfglKtHeKOeDwFQkcc9fP7bGuBgJArpiewGgE333ZzEmZcSxQIfqlCIJRXlsvJEye1Hn+wHKDfEzc6QDcX+upfsmrlKq3rcfm0y2XXzl1aAXH+TfNl8aOLpaCgQF568SWZOWumTmUhbwDLdFEzYfPWzTJq9KiAT4mVAXk5eTodV1NbI9fPvl4GDh7Y7LV//NhxSd+eriIFIsFfeedAjUCfkYC5/a/bZc68OSoSmrbt89TJxg0bZOfOnVJdUSYxEU45WXBGIqO9MnbiBLnngYdl4KBBzZ4SxcxQNwHCAwmdiFS09DKWUGJbbHwPYdYe10Kg/OxwHAWCHUbJfBttLRDMx9OOZ6BA8AsfAqHGXaMrTjC/3S4C0Se6nC/9jXQt6V1WUqaZ+wnxCfJfi/9Ln4DxJP/Qooek/8D+KiJQfOujDz/SvRNWv7BanXxrnLfP49OpCyzli4iKuGC/4SzxtN90es8v2AAOQM5F4elCrV8SGxd7ng2+OtQo+Z2kb39Dund2iOdsvpScrpb4BJ/0HjJGfvnfz8mwtJEXPFOgdRNwXMGxAomLj9OpCPQ3PsHi+6wEwLe9D6FAaO8RsMb5KRCsMQ7nW0GB4HdkLDHFcG51QeGpQsnMzGzId0EiYWZGpvRI7qErFXql9pI5N8zRcsCoDurz+uSnP/up/OznP/umkJLfHjcOXbR/MaCWnLjPUytbt2yWv766VWKlWiqK86W0yiMJsVHSNXWw/OrxZzRfw+F0ircNVY1gw+d7PldhMGXqlFYJrdbg7mjHUiB0tBFvvr8UCFa9DigQ/I6MVZIUYWjD/grnBAN2Ylz1zCo5U3pGkrolybOrn5XLr7hcpx4OZRzSvk3+1mSdGgvHl9frkde2bZNN69ZJlKdaqs4USZk3WpyRMdIntbcsXvKoLvXEVICnDQIB7Koqq6TgeIFGaFoTiQlH7sHqEwVCsEjaux0TBMJCexOxivWlmSKfrxQZ/0uR5DFWscpSdlhJIDQGA7Fw+tRpTSREBj9EwKQpk3Q/EhUS+j+KB1lwt6YgjbDbK/K3D/4mG9aulW4JMZIYHy1uV5zUVldJcveuMvuGuTJp0iQtntSWCIJh7oWKSwWpOx2uGQqEDjfkzXY4uAIhtrtI3ytINhgEKk+L5H0scumDIt1HB6PFsGvDqgLBiCgYeycgByCcxUBzF5bHJ3I8N0d2vvMXiYpKlLQxk6SyqlqqKyrEGRUhPVJTZfjwNN3IytfGCELYXdgW6BAFggUGwQImBEkg+ES+fFnk5D4LdCmMTOg0QGTUnSKJfcOoU8HripUFQvB6ad+W3NWVUnpoj3hL8sQldZqfUVfnlsi4zpKYdoXEdu8jDkf4RlHsO3IstWznsQum7cERCIiZeupEvDXBtI1tOVwiEdFY5E8WzRCgQLD2ZeGpKBJPxk6J9FSK14GqkU6NFXg8XvEmD5eo/hPEERHCHVKtjctS1jGCYKnhaDdjgiQQ2s1+nrgDE6BAsPbgu09lijNnj9THCBz6X332hVdqxCWu4VeLq1MPa3eig1pHgdBBB75JtykQeB3YlgAFgnWHDkmDNZmfSFRpju60+B+7LztEt8KuSewtMcO+J05GESw3kBQIlhuSdjGIAqFdsPOkwSBAgRAMiua04a2tkdr9r0u0w3uBQk4+qXbXigy5QqKTB7dPkStzuh4WrVIghMUwtrkTFAhtRsgG2osABUJ7kfd/3ppTh8WV/XdxOhwXdP5Y5VEdkyQxI6aLMzLWf6M8ImQEKBBChtrSJ6JAsPTw0LiWCFAgWPT68Pmk6vBnElN8pMXIgE5DxCVL1NDviDM63qKd6ZhmUSB0zHFv2msKBF4HtiVAgWDVofOJuzBbJP9LiagtF2czi3BQPdETnyzO3mPE1TmFK3UsNpQUCBYbkHYyhwKhncDztG0nQIHQdoZmteDzeMRbUSieoqMiZwrEUXtWIpwR4nNGijc6QaRLH3F26ScRMQkiYVxR0iy+ZrdLgWA2YXu0T4Fgj3Gilc0QoECwwWXh84rP6xHxevRfR4RLxOkScTiZmGjh4aNAsPDghNA0CoQQwuapgkuAAiG4PM1vDcWS8GLhL/NZt+0MFAht4xcun6ZACJeR7ID9oEDogIPOLoeEAAVCSDBb/iQUCJYfIhp4IQIUCLw2SMAcAhQI5nC1W6sUCHYbMdrbQIACgRcDCZhDgALBHK52a5UCwW4jRnvbJBBQnAdfyKivqa3R72NjY5kwx+uKBBoRoEDg5QACFAi8DmxLoLURBBTmyT6cLVlZWTJy1EjJz8uXs2fPymXTLpPYOFbys+2FQMODToACIehIbdkgBYIth41Gg0BrBQKiBQf/dVCyDmXJmHFjxOf1ibvOLQMHDZTo6GhCJQESOEeAAoGXAiMIvAZsTaC1AgGddde6pc5TJy6XS7/0j8DBZXe2vhBofNAJUCAEHaktG2QEwZbDRqMvJoJAaiRAAoERoEAIjFO4H0WBEO4jHMb98/g84va4pbamVpwRzoaIAKYSamtrddoA/yJS4KnzSE1NjSYkVlZUSnRMtE4vuCJc4nA6pKqqSuLi4qSqskri4+OlurpanOdKABufq66plvi4eCkvLxeP1yORrkipdddKbEysfj4yKlK8Hq/U1dUpdbfbLWVlZdKpUyfpktRFj8G0BuoEJSQk6PcVFRUNIwTb0F5FeYV+dU7qLJXlleITn3Tq3EmPQ99OnjwpSV2StL2uXbtKSq+UBlvDeLjZtRASoEAIIWwLn4oCwcKDQ9MuTAAJh6dOnZIPP/pQjh87rkmGnTt3VkcJh37yxEnpmdJTTp08JYmdEtXxnzh5QgYOHChff/219OnTR4qKitRRx0THSE52jgy9ZKhkZ2frv/h8QmKCOvCCggIZMmSIfp+SkiL7/2+/OuekrklSXFgsqf1SJTc3V3r06CHiE7UnOipaXJEutRHtDB06VHLzcnU6A+dEe2fKzkj2kWwVFImJiSoiCk8XSmlpqXh9XnX8+B59RdsQB8XFxSo6eqX0kuMFxyW5e7IsfXypDBoyiJcLCbRIANcRXoFMqVEg8GLSa8VnXDXkQQI2IoDL9vDhw/LY0sd0ZQIcLHILxo0bJ4WFhZKfny8Ocej3zkinPpl36dxF+vXrpzdIOG7xilRWVqpogLDIP5Yv3ZO76+/wHpz6gQMHJCoqSgXB9OnT5auvvtLf5+fmqyCB0CguLZZu3brpzz179FR7uiV3k969e6tDh7Coqq6VKvC9AAAOIUlEQVTS6EJyj2S14cyZM3Ki4IRGLRAtgCjJyMhQexHxGD1mtLaNn3NyciQtLU1OnDihQmTEiBEalUhPT5dP//dT2fjKRpkxa4aNRo+mhpqAx+ORozlHVZziGvQnEigQQj1C1jwfBYI1x4VWBUAAIfzMzEwpKSnRKAB+HjBwgJSfLZfSslJ9MkfkACF6ONqYmBi55JJLdJrh9OnTEhERIdVV1fp0HhUdpZECOHoIAPyblJSkDh5OHOfo27ev/gtxgvcxtYDPFhUX6fFw7BATSISMcEVIZGSk4MZsfKFLDce43fo+fkZkANMhECGIfmBaBFMH+DzExRdffCEDBgyQTz75RKc+brrpJo2CPP7Y43I467C8uu1VmTx1cgDEeEggBDC+jR2o/ox5oUBzWX0IJBn7TnxzRrRhvG+03/Rcgdh3MccgWvbSCy/JtO9Mk6mXTdU6IJiWwzUIG3Ct4YW/Cf1XIsTpcF7MqfiZMCJAgRBGg9kRu9I0AIYbb9P3jJ+1QNK5G2DjG3PjzzR+3/gcogvNBdqMzzUO3bb0ZNb4uJYcg/E72IuXITCQewDxALGA79c8v0b+uOmP8rsNv5Mb5t9QP/w+bJxY30/jfPhX+2A4LfguZ2Ch5havKbSDL4d8w+fc982Ng9EW+tPYGcE+5IjAYalT8tX3WY9xRajQQ3voF/I2XFEuqamuqe8jfo6sF1m6OiWi/nsjP8Tot74XFSm11bXalrLw1bePXBQDDaakEFXC9NTpU6c1KgTWiAzhyRtCrql4gJ3GexCnhw4dUuGHXBWw0ZyWqmqJiY3R9zBNhYhSQnyCTiElJydrRAhtoE917jplgT7gZ6fLqXkyF/tC3z/+6GNZ8sgSteuSYZdo/2DH8fzjKnC/+73v6nn79uurInfkiJEqfv1FGi7WJn7OHgQoEOwxTrSSBP6DACIZSxYvkTe2vyEvvPSCDBk6RG/+cbFxmgOBKRIUgcLNHtMScHQIL6ujRfXI+FiJiomqd8LOCD0OzgxREeQ4GEtAEW1BZAZOGhGY8opydd5w5DgXpmkQ+UBEpqKqQj+HqZAuXbpotKNxEqYhYHAsHHfXbl3VHrR96sQpzelAmxAMsAHTQojMYCoGOSbFRcVqOwQSpn4QZcFUDaZs8D7yR+Bs0W9Eiv79739rtAhJrHhveNpw2b9/vzpsTTT1eHQa6MjhI/UCxyfKCm2CX15enp7/aO5RzRm56qqrZOy4sXo+PJHj/Og72oODR58Q7fnNb36jjh/9R9/AHQwRiULbiEThffwM8TFs2DBtA3zRJj6LfzGVNHjIYHXoxlg1FlkQSVoF1I94MATCI796RI4dOyadEjtJap9U7TPGG2OP6wmJsLATU1v33nuvTJw8kQKhg993KBA6+AXA7tuTAG7ojz7yqLyV/pZMv3a69OjZQ6dEDIeMp0M4ITjCI0eOqMM2nurhwBPjE3UlhuH44ZDg4Pr27ytf7PtCBQUSJfv17yclRSXaDpzpocxD+jQM54YCU3AycKp5uXkaBcA5juUf06dtOM+iwqJ6QeF0NjhJPLHjOIgMI6oDxwlHhydbJGsivySlZ4o6dzhOnXqpq1WHiO+N/A4VGl276pRP//79dXrIcNhoE0/BPo9Pz41jSspKtD28co/mSmrvVI0KwEnCkYMNzoH+N47kYAVLztEczXWBg4ejHTx4sH4GT/nDhw9XR//nP/9Z9u3bpyIGP+OciEh0795dbYCQwNjh9zgXBBUcMuw2BAPECM6Pr0GDB2l+CqIPxgvRDwiUt954SyuCQhyiT2CpXJ1OnTLDzzgnBOCbr78pK1eslOvnXC/jxo/TPoAtWGNlDsQVBBuE1ID+AzS6wOqi9rw3BNNqCoRg0mRbJBAiAphq+MPGP8gTjz8hC25ZILf85BZ1VnDmuLkj8dHInTCiBpVVlRpGxpM1niJ37dolOz/cqXkavXr30ideODN8FstAsYoCIXOIAwgJIycCYmTatGkycvTIhqdPOO1Lx1+qqz/iE+LrBYbXq6tDys6UqRNC4ui0y6c1zHcjLwRio2fPnhoRQKh7xvdn6O937NghY8eO1dUaeLLFcRAscN6wBw7WSOhEP/HUjad+PJGDg5H/AWFkTBEhEoFpCDh0OOaC4wUatQALTD+gHUQp4IwhMhocss8nX375pWzfvl0jCRlfZ0hefp7MnDlTJkyYoNxwTgiVTZs2qVC59tprVZxgnCCQYI8x1w+njX4YS2kNAQS7IKoM0WHkpug0Q6MpIggElAm/ce6NOsWCiEb/Qf112gX9gGOHaKg4W6HiDWJtx3s75FDGIU1oRSTEmGpryIU4t/zWmC7h1EKI/pAtfhoKBIsPEM0jgeYIwNl8+umnsvyp5ZLULUnWrl+rTtnhc9SHhc/lBjSTK9cwp4+n0G1/2Sapqan1YqCiXN584011tHBSuuJDHLLr41365Iw5eYgHVLCEc/zh9T9URwtb8AVHZ0QLDAcDYWG8Z0QrjN8ZG2ehDQgMRCCMp1atKxEZqV+BOqvGeQ/G98ZnDZHUHEsjAbHp5xsfC1Z4uoaYgTCB40cUo3GJbjCAwEJ/muYqtHQVN83XaMkOox0IoYULF6rAgxBA5GXRrxbJsePHlCOEy9GjRyUrM0sjFTVV9dMRTzz1hEycxKkD3lUCI0CBEBgnHkUCliMAJ4V5cuwvcfX0q9UBtOaFp0/saAknbDxlY4rC+NkIV6NWA8LPeB9OHQ4fc9cdKQTdNMHU4ByoeGnNuLR0rGEHhMj7778vz61+TiNAqIOxfMVyFSeIGCACAqHgcddPIxmC0YiuhNruYPWf7YSWAAVCaHnzbCQQdAJw2kbVx6A3joUKTZb9mXEOthkYAYwFHP7Bgwflueee0wjPzT++WYalDdMpDY24OPGuQ1DLQKMjfJHARRKgQLhIcPwYCZAACYSaAKY5MGUAgYDVIOMnjNckxrj4uAZTKA5CPSrhez4KhPAdW/aMBEggjAggORNVNZGfgeWcSHbEqhPUgTACBRQHYTTgFugKBYIFBoEmkAAJkEBLBDCt8N677+lKinvvu1cmTZpUXyjK4dMv48USybyOgkmAAiGYNNkWCZAACZhAAHkmKLW94ukVcsutt8iCHy2oXzoJgXBuqYqRc8C8AxMGoIM2SYHQQQee3SYBErAPASQn7tu7T1avWq01L7A5V0MtA01F/OY/+/SKllqdAAWC1UeI9pEACXR4AhAIez/fK0uXLJU58+fI7XfeXl/QKjpai1AhesAXCQSbAAVCsImyPRIgARIIMgEVCHv3yqpnVsmPbv2RzLpuluz++27pk9pHtyVnXYMgA2dzSoACgRcCCZAACVidgE8kKytLXvyfF2XAoAFyxZVXSM/knrr/RmsLZFm9q7TPOgQoEKwzFrSEBEiABC5IADUQ1v9+ve5pcffP79b9KFDemtEDXjRmEaBAMIss2yUBEiCBIBLAUseMjAzd5Gn06NENm15RIAQRMpv6DwIUCLwgSIAESMAmBLAPBpY8Ys8FCgObDJqNzaRAsPHg0XQSIAESIAESMIsABYJZZNkuCZAACZAACdiYAAWCjQePppMACZAACZCAWQQoEMwiy3ZJgARIgARIwMYEKBBsPHg0nQRIgARIgATMIkCBYBZZtksCJEACJEACNiZAgWDjwaPpJEACJEACJGAWAQoEs8iyXRIgARIgARKwMQEKBBsPHk0nARIgARIgAbMIUCCYRZbtkgAJkAAJkICNCVAg2HjwaDoJkAAJkAAJmEWAAsEssmyXBEiABEiABGxMgALBxoNH00mABEiABEjALAIUCGaRZbskQAIkQAIkYGMCFAg2HjyaTgIkQAIkQAJmEaBAMIss2yUBEiABEiABGxOgQLDx4NF0EiABEiABEjCLAAWCWWTZLgmQAAmQAAnYmAAFgo0Hj6aTAAmQAAmQgFkEKBDMIst2SYAESIAESMDGBCgQbDx4NJ0ESIAESIAEzCJAgWAWWbZLAiRAAiRAAjYmQIFg48Gj6SRAAiRAAiRgFgEKBLPIsl0SIAESIAESsDEBCgQbDx5NJwESIAESIAGzCFAgmEWW7ZIACZAACZCAjQlQINh48Gg6CZAACZAACZhFgALBLLJslwRIgARIgARsTIACwcaDR9NJgARIgARIwCwCFAhmkWW7JEACJEACJGBjAhQINh48mk4CJEACJEACZhGgQDCLLNslARIgARIgARsToECw8eDRdBIgARIgARIwiwAFgllk2S4JkAAJkAAJ2JgABYKNB4+mkwAJkAAJkIBZBCgQzCLLdkmABEiABEjAxgQoEGw8eDSdBEiABEiABMwiQIFgFlm2SwIkQAIkQAI2JkCBYOPBo+kkQAIkQAIkYBYBCgSzyLJdEiABEiABErAxAQoEGw8eTScBEiABEiABswhQIJhFlu2SAAmQAAmQgI0JUCDYePBoOgmQAAmQAAmYRYACwSyybJcESIAESIAEbEyAAsHGg0fTSYAESIAESMAsAhQIZpFluyRAAiRAAiRgYwIUCDYePJpOAiRAAiRAAmYRoEAwiyzbJQESIAESIAEbE6BAsPHg0XQSIAESIAESMIsABYJZZNkuCZAACZAACdiYAAWCjQePppMACZAACZCAWQQoEMwiy3ZJgARIgARIwMYEKBBsPHg0nQRIgARIgATMIkCBYBZZtksCJEACJEACNiZAgWDjwaPpJEACJEACJGAWAQoEs8iyXRIgARIgARKwMQEKBBsPHk0nARIgARIgAbMIUCCYRZbtkgAJkAAJkICNCVAg2HjwaDoJkAAJkAAJmEWAAsEssmyXBEiABEiABGxM4P8B/rcoQNkXh8gAAAAASUVORK5CYII=;" parent="n0nwbGPEsCJ3wl-f-12y-1" vertex="1">
          <mxGeometry x="220" y="-180" width="361.05" height="159" as="geometry" />
        </mxCell>
        <mxCell id="rXCT14J-BfKCkpaahrCD-3" value="" style="shape=flexArrow;endArrow=classic;html=1;entryX=0.5;entryY=0;entryDx=0;entryDy=0;strokeWidth=2;" parent="n0nwbGPEsCJ3wl-f-12y-1" target="rXCT14J-BfKCkpaahrCD-0" edge="1">
          <mxGeometry width="50" height="50" relative="1" as="geometry">
            <mxPoint x="440" y="-270" as="sourcePoint" />
            <mxPoint x="360" y="-220" as="targetPoint" />
          </mxGeometry>
        </mxCell>
      </root>
    </mxGraphModel>
  </diagram>
  <diagram id="yO5VTTR2Ly0LloX2j2jw" name="JobLogPage">
    <mxGraphModel dx="1161" dy="1843" grid="1" gridSize="10" guides="1" tooltips="1" connect="1" arrows="1" fold="1" page="1" pageScale="1" pageWidth="827" pageHeight="1169" math="0" shadow="0">
      <root>
        <mxCell id="-VoNo1GTi6xVGyqaLVmS-0" />
        <mxCell id="-VoNo1GTi6xVGyqaLVmS-1" parent="-VoNo1GTi6xVGyqaLVmS-0" />
        <mxCell id="tCrKKw-qxABEY0ADIaY1-27" value="" style="rounded=0;whiteSpace=wrap;html=1;" parent="-VoNo1GTi6xVGyqaLVmS-1" vertex="1">
          <mxGeometry x="30" y="-440" width="770" height="450" as="geometry" />
        </mxCell>
        <mxCell id="tCrKKw-qxABEY0ADIaY1-42" value="" style="rounded=0;whiteSpace=wrap;html=1;" parent="-VoNo1GTi6xVGyqaLVmS-1" vertex="1">
          <mxGeometry x="401" y="-110" width="381" height="90" as="geometry" />
        </mxCell>
        <mxCell id="tCrKKw-qxABEY0ADIaY1-40" value="" style="rounded=0;whiteSpace=wrap;html=1;" parent="-VoNo1GTi6xVGyqaLVmS-1" vertex="1">
          <mxGeometry x="401" y="-270" width="380" height="150" as="geometry" />
        </mxCell>
        <mxCell id="tCrKKw-qxABEY0ADIaY1-34" value="" style="rounded=0;whiteSpace=wrap;html=1;" parent="-VoNo1GTi6xVGyqaLVmS-1" vertex="1">
          <mxGeometry x="46" y="-270" width="305" height="250" as="geometry" />
        </mxCell>
        <mxCell id="tCrKKw-qxABEY0ADIaY1-11" value="" style="rounded=0;whiteSpace=wrap;html=1;" parent="-VoNo1GTi6xVGyqaLVmS-1" vertex="1">
          <mxGeometry x="20" y="-630" width="780" height="140" as="geometry" />
        </mxCell>
        <mxCell id="0IHutql-go06iy1Ku9PH-0" style="edgeStyle=orthogonalEdgeStyle;rounded=0;orthogonalLoop=1;jettySize=auto;html=1;exitX=0.5;exitY=0;exitDx=0;exitDy=0;" parent="-VoNo1GTi6xVGyqaLVmS-1" source="0IHutql-go06iy1Ku9PH-1" target="0IHutql-go06iy1Ku9PH-3" edge="1">
          <mxGeometry relative="1" as="geometry">
            <mxPoint x="180" y="-1090" as="targetPoint" />
          </mxGeometry>
        </mxCell>
        <mxCell id="0IHutql-go06iy1Ku9PH-1" value="重做" style="rounded=1;whiteSpace=wrap;html=1;" parent="-VoNo1GTi6xVGyqaLVmS-1" vertex="1">
          <mxGeometry x="369" y="-1120" width="90" height="40" as="geometry" />
        </mxCell>
        <mxCell id="0IHutql-go06iy1Ku9PH-2" value="聯係管理員" style="rounded=1;whiteSpace=wrap;html=1;" parent="-VoNo1GTi6xVGyqaLVmS-1" vertex="1">
          <mxGeometry x="620" y="-1125" width="90" height="40" as="geometry" />
        </mxCell>
        <mxCell id="0IHutql-go06iy1Ku9PH-3" value="Can only be activated when current job status is error(&lt;span style=&quot;background-color: rgb(204 , 255 , 153)&quot;&gt;status == 5&lt;/span&gt;), otherwise, front end should disable the button.&lt;br&gt;&lt;br&gt;front end could check the status in table &quot;sys_shcedule_job_log&quot;" style="text;html=1;strokeColor=none;fillColor=none;align=center;verticalAlign=middle;whiteSpace=wrap;rounded=0;" parent="-VoNo1GTi6xVGyqaLVmS-1" vertex="1">
          <mxGeometry x="60" y="-1150" width="220" height="90" as="geometry" />
        </mxCell>
        <mxCell id="0IHutql-go06iy1Ku9PH-4" value="" style="group" parent="-VoNo1GTi6xVGyqaLVmS-1" vertex="1" connectable="0">
          <mxGeometry x="210" y="-1030" width="330" height="150" as="geometry" />
        </mxCell>
        <mxCell id="0IHutql-go06iy1Ku9PH-5" value="" style="rounded=1;whiteSpace=wrap;html=1;" parent="0IHutql-go06iy1Ku9PH-4" vertex="1">
          <mxGeometry width="330" height="150" as="geometry" />
        </mxCell>
        <mxCell id="0IHutql-go06iy1Ku9PH-6" value="請選擇" style="rounded=1;whiteSpace=wrap;html=1;" parent="0IHutql-go06iy1Ku9PH-4" vertex="1">
          <mxGeometry x="24.264705882352942" y="20" width="247.5" height="30" as="geometry" />
        </mxCell>
        <mxCell id="0IHutql-go06iy1Ku9PH-7" value="重做錯誤部分" style="rounded=1;whiteSpace=wrap;html=1;" parent="0IHutql-go06iy1Ku9PH-4" vertex="1">
          <mxGeometry x="24.264705882352942" y="80" width="116.47058823529412" height="50" as="geometry" />
        </mxCell>
        <mxCell id="0IHutql-go06iy1Ku9PH-8" value="重做整個任務" style="rounded=1;whiteSpace=wrap;html=1;" parent="0IHutql-go06iy1Ku9PH-4" vertex="1">
          <mxGeometry x="155.2941176470588" y="80" width="116.47058823529412" height="50" as="geometry" />
        </mxCell>
        <mxCell id="0IHutql-go06iy1Ku9PH-9" value="" style="verticalLabelPosition=bottom;verticalAlign=top;html=1;shape=mxgraph.basic.x" parent="0IHutql-go06iy1Ku9PH-4" vertex="1">
          <mxGeometry x="291.1764705882353" y="10" width="19.41176470588235" height="20" as="geometry" />
        </mxCell>
        <mxCell id="0IHutql-go06iy1Ku9PH-10" style="edgeStyle=orthogonalEdgeStyle;rounded=0;orthogonalLoop=1;jettySize=auto;html=1;exitX=0.5;exitY=1;exitDx=0;exitDy=0;" parent="-VoNo1GTi6xVGyqaLVmS-1" source="0IHutql-go06iy1Ku9PH-7" target="0IHutql-go06iy1Ku9PH-11" edge="1">
          <mxGeometry relative="1" as="geometry">
            <mxPoint x="250" y="-830" as="targetPoint" />
          </mxGeometry>
        </mxCell>
        <mxCell id="0IHutql-go06iy1Ku9PH-11" value="Front end should create a new schedule with this job&amp;nbsp;&lt;br&gt;set schedule_command as 4" style="text;html=1;strokeColor=none;fillColor=none;align=center;verticalAlign=middle;whiteSpace=wrap;rounded=0;" parent="-VoNo1GTi6xVGyqaLVmS-1" vertex="1">
          <mxGeometry x="160" y="-845" width="290" height="70" as="geometry" />
        </mxCell>
        <mxCell id="0IHutql-go06iy1Ku9PH-12" style="edgeStyle=orthogonalEdgeStyle;rounded=0;orthogonalLoop=1;jettySize=auto;html=1;exitX=0.5;exitY=1;exitDx=0;exitDy=0;" parent="-VoNo1GTi6xVGyqaLVmS-1" source="0IHutql-go06iy1Ku9PH-8" target="0IHutql-go06iy1Ku9PH-13" edge="1">
          <mxGeometry relative="1" as="geometry">
            <mxPoint x="490" y="-820" as="targetPoint" />
          </mxGeometry>
        </mxCell>
        <mxCell id="0IHutql-go06iy1Ku9PH-13" value="Front end should create&amp;nbsp;a new schedule with this job&amp;nbsp;&lt;br&gt;set schedule_command as 1" style="text;html=1;strokeColor=none;fillColor=none;align=center;verticalAlign=middle;whiteSpace=wrap;rounded=0;" parent="-VoNo1GTi6xVGyqaLVmS-1" vertex="1">
          <mxGeometry x="470" y="-830" width="290" height="40" as="geometry" />
        </mxCell>
        <mxCell id="tCrKKw-qxABEY0ADIaY1-0" value="" style="rounded=0;whiteSpace=wrap;html=1;" parent="-VoNo1GTi6xVGyqaLVmS-1" vertex="1">
          <mxGeometry x="20" y="-700" width="780" height="60" as="geometry" />
        </mxCell>
        <mxCell id="tCrKKw-qxABEY0ADIaY1-2" value="項目編號" style="rounded=1;whiteSpace=wrap;html=1;" parent="-VoNo1GTi6xVGyqaLVmS-1" vertex="1">
          <mxGeometry x="30" y="-690" width="60" height="40" as="geometry" />
        </mxCell>
        <mxCell id="tCrKKw-qxABEY0ADIaY1-3" value="名稱" style="rounded=1;whiteSpace=wrap;html=1;" parent="-VoNo1GTi6xVGyqaLVmS-1" vertex="1">
          <mxGeometry x="110" y="-690" width="120" height="40" as="geometry" />
        </mxCell>
        <mxCell id="tCrKKw-qxABEY0ADIaY1-4" value="動作詳情" style="rounded=1;whiteSpace=wrap;html=1;" parent="-VoNo1GTi6xVGyqaLVmS-1" vertex="1">
          <mxGeometry x="250" y="-690" width="90" height="40" as="geometry" />
        </mxCell>
        <mxCell id="tCrKKw-qxABEY0ADIaY1-5" value="開始時間" style="rounded=1;whiteSpace=wrap;html=1;" parent="-VoNo1GTi6xVGyqaLVmS-1" vertex="1">
          <mxGeometry x="470" y="-690" width="90" height="40" as="geometry" />
        </mxCell>
        <mxCell id="tCrKKw-qxABEY0ADIaY1-6" value="結束時間" style="rounded=1;whiteSpace=wrap;html=1;" parent="-VoNo1GTi6xVGyqaLVmS-1" vertex="1">
          <mxGeometry x="580" y="-690" width="90" height="40" as="geometry" />
        </mxCell>
        <mxCell id="tCrKKw-qxABEY0ADIaY1-7" value="操作" style="rounded=1;whiteSpace=wrap;html=1;" parent="-VoNo1GTi6xVGyqaLVmS-1" vertex="1">
          <mxGeometry x="690" y="-690" width="90" height="40" as="geometry" />
        </mxCell>
        <mxCell id="tCrKKw-qxABEY0ADIaY1-8" value="狀態" style="rounded=1;whiteSpace=wrap;html=1;" parent="-VoNo1GTi6xVGyqaLVmS-1" vertex="1">
          <mxGeometry x="360" y="-690" width="90" height="40" as="geometry" />
        </mxCell>
        <mxCell id="tCrKKw-qxABEY0ADIaY1-9" value="清潔" style="rounded=1;whiteSpace=wrap;html=1;" parent="-VoNo1GTi6xVGyqaLVmS-1" vertex="1">
          <mxGeometry x="250" y="-620" width="90" height="40" as="geometry" />
        </mxCell>
        <mxCell id="tCrKKw-qxABEY0ADIaY1-10" value="消毒" style="rounded=1;whiteSpace=wrap;html=1;" parent="-VoNo1GTi6xVGyqaLVmS-1" vertex="1">
          <mxGeometry x="250" y="-550" width="90" height="40" as="geometry" />
        </mxCell>
        <mxCell id="tCrKKw-qxABEY0ADIaY1-13" value="" style="endArrow=none;html=1;exitX=0;exitY=0.5;exitDx=0;exitDy=0;entryX=1;entryY=0.5;entryDx=0;entryDy=0;" parent="-VoNo1GTi6xVGyqaLVmS-1" source="tCrKKw-qxABEY0ADIaY1-11" target="tCrKKw-qxABEY0ADIaY1-11" edge="1">
          <mxGeometry width="50" height="50" relative="1" as="geometry">
            <mxPoint x="380" y="-510" as="sourcePoint" />
            <mxPoint x="430" y="-560" as="targetPoint" />
          </mxGeometry>
        </mxCell>
        <mxCell id="tCrKKw-qxABEY0ADIaY1-14" value="錯誤" style="rounded=1;whiteSpace=wrap;html=1;" parent="-VoNo1GTi6xVGyqaLVmS-1" vertex="1">
          <mxGeometry x="360" y="-620" width="90" height="40" as="geometry" />
        </mxCell>
        <mxCell id="tCrKKw-qxABEY0ADIaY1-15" value="完成" style="rounded=1;whiteSpace=wrap;html=1;" parent="-VoNo1GTi6xVGyqaLVmS-1" vertex="1">
          <mxGeometry x="360" y="-550" width="90" height="40" as="geometry" />
        </mxCell>
        <mxCell id="tCrKKw-qxABEY0ADIaY1-16" value="1" style="rounded=1;whiteSpace=wrap;html=1;" parent="-VoNo1GTi6xVGyqaLVmS-1" vertex="1">
          <mxGeometry x="30" y="-550" width="60" height="40" as="geometry" />
        </mxCell>
        <mxCell id="tCrKKw-qxABEY0ADIaY1-17" value="2" style="rounded=1;whiteSpace=wrap;html=1;" parent="-VoNo1GTi6xVGyqaLVmS-1" vertex="1">
          <mxGeometry x="30" y="-620" width="60" height="40" as="geometry" />
        </mxCell>
        <mxCell id="tCrKKw-qxABEY0ADIaY1-18" value="4/F_handrail_001" style="rounded=1;whiteSpace=wrap;html=1;" parent="-VoNo1GTi6xVGyqaLVmS-1" vertex="1">
          <mxGeometry x="110" y="-550" width="120" height="40" as="geometry" />
        </mxCell>
        <mxCell id="tCrKKw-qxABEY0ADIaY1-19" value="4/F_handrail_001" style="rounded=1;whiteSpace=wrap;html=1;" parent="-VoNo1GTi6xVGyqaLVmS-1" vertex="1">
          <mxGeometry x="110" y="-620" width="120" height="40" as="geometry" />
        </mxCell>
        <mxCell id="tCrKKw-qxABEY0ADIaY1-20" value="---" style="rounded=1;whiteSpace=wrap;html=1;" parent="-VoNo1GTi6xVGyqaLVmS-1" vertex="1">
          <mxGeometry x="690" y="-620" width="90" height="40" as="geometry" />
        </mxCell>
        <mxCell id="tCrKKw-qxABEY0ADIaY1-21" value="---" style="rounded=1;whiteSpace=wrap;html=1;" parent="-VoNo1GTi6xVGyqaLVmS-1" vertex="1">
          <mxGeometry x="690" y="-550" width="90" height="40" as="geometry" />
        </mxCell>
        <mxCell id="tCrKKw-qxABEY0ADIaY1-22" value="---" style="rounded=1;whiteSpace=wrap;html=1;" parent="-VoNo1GTi6xVGyqaLVmS-1" vertex="1">
          <mxGeometry x="470" y="-620" width="90" height="40" as="geometry" />
        </mxCell>
        <mxCell id="tCrKKw-qxABEY0ADIaY1-23" value="---" style="rounded=1;whiteSpace=wrap;html=1;" parent="-VoNo1GTi6xVGyqaLVmS-1" vertex="1">
          <mxGeometry x="470" y="-550" width="90" height="40" as="geometry" />
        </mxCell>
        <mxCell id="tCrKKw-qxABEY0ADIaY1-24" value="---" style="rounded=1;whiteSpace=wrap;html=1;" parent="-VoNo1GTi6xVGyqaLVmS-1" vertex="1">
          <mxGeometry x="580" y="-620" width="90" height="40" as="geometry" />
        </mxCell>
        <mxCell id="tCrKKw-qxABEY0ADIaY1-25" value="---" style="rounded=1;whiteSpace=wrap;html=1;" parent="-VoNo1GTi6xVGyqaLVmS-1" vertex="1">
          <mxGeometry x="580" y="-550" width="90" height="40" as="geometry" />
        </mxCell>
        <mxCell id="tCrKKw-qxABEY0ADIaY1-26" value="" style="triangle;whiteSpace=wrap;html=1;rotation=90;" parent="-VoNo1GTi6xVGyqaLVmS-1" vertex="1">
          <mxGeometry x="430" y="-675" width="10" height="10" as="geometry" />
        </mxCell>
        <mxCell id="tCrKKw-qxABEY0ADIaY1-28" value="手動模式" style="rounded=1;whiteSpace=wrap;html=1;fillColor=#ffe6cc;strokeColor=#d79b00;" parent="-VoNo1GTi6xVGyqaLVmS-1" vertex="1">
          <mxGeometry x="621" y="-260" width="120" height="60" as="geometry" />
        </mxCell>
        <mxCell id="tCrKKw-qxABEY0ADIaY1-29" value="自動模式" style="rounded=1;whiteSpace=wrap;html=1;fillColor=#dae8fc;strokeColor=#6c8ebf;" parent="-VoNo1GTi6xVGyqaLVmS-1" vertex="1">
          <mxGeometry x="451" y="-260" width="120" height="60" as="geometry" />
        </mxCell>
        <mxCell id="tCrKKw-qxABEY0ADIaY1-30" value="復原模式(手臂)" style="rounded=1;whiteSpace=wrap;html=1;fillColor=#f8cecc;strokeColor=#b85450;" parent="-VoNo1GTi6xVGyqaLVmS-1" vertex="1">
          <mxGeometry x="451" y="-190" width="120" height="60" as="geometry" />
        </mxCell>
        <mxCell id="tCrKKw-qxABEY0ADIaY1-33" value="機器人當前模式: 自動模式" style="rounded=1;whiteSpace=wrap;html=1;fillColor=#dae8fc;strokeColor=#6c8ebf;" parent="-VoNo1GTi6xVGyqaLVmS-1" vertex="1">
          <mxGeometry x="63.5" y="-260" width="270" height="60" as="geometry" />
        </mxCell>
        <mxCell id="tCrKKw-qxABEY0ADIaY1-35" value="手臂" style="rounded=1;whiteSpace=wrap;html=1;" parent="-VoNo1GTi6xVGyqaLVmS-1" vertex="1">
          <mxGeometry x="61" y="-180" width="70" height="60" as="geometry" />
        </mxCell>
        <mxCell id="tCrKKw-qxABEY0ADIaY1-37" value="小車狀態: 任務進行中" style="rounded=1;whiteSpace=wrap;html=1;" parent="-VoNo1GTi6xVGyqaLVmS-1" vertex="1">
          <mxGeometry x="848" y="-700" width="270" height="60" as="geometry" />
        </mxCell>
        <mxCell id="tCrKKw-qxABEY0ADIaY1-39" value="&amp;nbsp; &amp;nbsp;建議：" style="rounded=1;whiteSpace=wrap;html=1;align=left;" parent="-VoNo1GTi6xVGyqaLVmS-1" vertex="1">
          <mxGeometry x="45" y="-370" width="735" height="60" as="geometry" />
        </mxCell>
        <mxCell id="tCrKKw-qxABEY0ADIaY1-41" value="" style="rounded=0;whiteSpace=wrap;html=1;" parent="-VoNo1GTi6xVGyqaLVmS-1" vertex="1">
          <mxGeometry x="45" y="-420" width="735" height="30" as="geometry" />
        </mxCell>
        <mxCell id="tCrKKw-qxABEY0ADIaY1-43" value="小車回充電站" style="rounded=1;whiteSpace=wrap;html=1;fillColor=#dae8fc;strokeColor=#6c8ebf;" parent="-VoNo1GTi6xVGyqaLVmS-1" vertex="1">
          <mxGeometry x="451" y="-95" width="120" height="60" as="geometry" />
        </mxCell>
        <mxCell id="tCrKKw-qxABEY0ADIaY1-44" value="手臂回原位" style="rounded=1;whiteSpace=wrap;html=1;fillColor=#dae8fc;strokeColor=#6c8ebf;" parent="-VoNo1GTi6xVGyqaLVmS-1" vertex="1">
          <mxGeometry x="621" y="-95" width="120" height="60" as="geometry" />
        </mxCell>
        <mxCell id="tCrKKw-qxABEY0ADIaY1-46" value="連接正常" style="rounded=1;whiteSpace=wrap;html=1;fillColor=#d5e8d4;strokeColor=#82b366;" parent="-VoNo1GTi6xVGyqaLVmS-1" vertex="1">
          <mxGeometry x="141" y="-180" width="90" height="60" as="geometry" />
        </mxCell>
        <mxCell id="tCrKKw-qxABEY0ADIaY1-47" value="無任務" style="rounded=1;whiteSpace=wrap;html=1;fillColor=#d5e8d4;strokeColor=#82b366;" parent="-VoNo1GTi6xVGyqaLVmS-1" vertex="1">
          <mxGeometry x="241" y="-180" width="90" height="60" as="geometry" />
        </mxCell>
        <mxCell id="tCrKKw-qxABEY0ADIaY1-50" value="小車" style="rounded=1;whiteSpace=wrap;html=1;" parent="-VoNo1GTi6xVGyqaLVmS-1" vertex="1">
          <mxGeometry x="61" y="-110" width="70" height="60" as="geometry" />
        </mxCell>
        <mxCell id="tCrKKw-qxABEY0ADIaY1-51" value="連接正常" style="rounded=1;whiteSpace=wrap;html=1;fillColor=#d5e8d4;strokeColor=#82b366;" parent="-VoNo1GTi6xVGyqaLVmS-1" vertex="1">
          <mxGeometry x="141" y="-110" width="90" height="60" as="geometry" />
        </mxCell>
        <mxCell id="tCrKKw-qxABEY0ADIaY1-52" value="任務進行中" style="rounded=1;whiteSpace=wrap;html=1;fillColor=#d5e8d4;strokeColor=#82b366;" parent="-VoNo1GTi6xVGyqaLVmS-1" vertex="1">
          <mxGeometry x="241" y="-110" width="90" height="60" as="geometry" />
        </mxCell>
        <mxCell id="rTxTS8pto7_anECKqYQq-0" value="復原模式(手柄)" style="rounded=1;whiteSpace=wrap;html=1;fillColor=#f8cecc;strokeColor=#b85450;" parent="-VoNo1GTi6xVGyqaLVmS-1" vertex="1">
          <mxGeometry x="621" y="-190" width="120" height="60" as="geometry" />
        </mxCell>
        <mxCell id="rTxTS8pto7_anECKqYQq-1" value="Schedule n" style="rounded=0;whiteSpace=wrap;html=1;" parent="-VoNo1GTi6xVGyqaLVmS-1" vertex="1">
          <mxGeometry x="853" y="-590" width="250" height="60" as="geometry" />
        </mxCell>
        <mxCell id="rTxTS8pto7_anECKqYQq-7" style="edgeStyle=orthogonalEdgeStyle;rounded=0;orthogonalLoop=1;jettySize=auto;html=1;exitX=1;exitY=0.5;exitDx=0;exitDy=0;" parent="-VoNo1GTi6xVGyqaLVmS-1" source="rTxTS8pto7_anECKqYQq-2" edge="1">
          <mxGeometry relative="1" as="geometry">
            <mxPoint x="1163" y="-480" as="targetPoint" />
          </mxGeometry>
        </mxCell>
        <mxCell id="rTxTS8pto7_anECKqYQq-2" value="Schedule n+1" style="rounded=0;whiteSpace=wrap;html=1;" parent="-VoNo1GTi6xVGyqaLVmS-1" vertex="1">
          <mxGeometry x="853" y="-510" width="250" height="60" as="geometry" />
        </mxCell>
        <mxCell id="rTxTS8pto7_anECKqYQq-3" value="" style="endArrow=classic;html=1;exitX=1;exitY=0.5;exitDx=0;exitDy=0;entryX=0;entryY=0.5;entryDx=0;entryDy=0;" parent="-VoNo1GTi6xVGyqaLVmS-1" source="rTxTS8pto7_anECKqYQq-1" target="rTxTS8pto7_anECKqYQq-4" edge="1">
          <mxGeometry width="50" height="50" relative="1" as="geometry">
            <mxPoint x="1143" y="-530" as="sourcePoint" />
            <mxPoint x="1233" y="-560" as="targetPoint" />
          </mxGeometry>
        </mxCell>
        <mxCell id="rTxTS8pto7_anECKqYQq-4" value="Map 1" style="rounded=1;whiteSpace=wrap;html=1;" parent="-VoNo1GTi6xVGyqaLVmS-1" vertex="1">
          <mxGeometry x="1164" y="-590" width="99" height="60" as="geometry" />
        </mxCell>
        <mxCell id="rTxTS8pto7_anECKqYQq-6" value="Map 1" style="rounded=1;whiteSpace=wrap;html=1;" parent="-VoNo1GTi6xVGyqaLVmS-1" vertex="1">
          <mxGeometry x="1164" y="-510" width="99" height="60" as="geometry" />
        </mxCell>
        <mxCell id="rTxTS8pto7_anECKqYQq-8" value="" style="shape=flexArrow;endArrow=classic;html=1;" parent="-VoNo1GTi6xVGyqaLVmS-1" edge="1">
          <mxGeometry width="50" height="50" relative="1" as="geometry">
            <mxPoint x="1293" y="-520" as="sourcePoint" />
            <mxPoint x="1373" y="-520" as="targetPoint" />
          </mxGeometry>
        </mxCell>
        <mxCell id="rTxTS8pto7_anECKqYQq-9" value="No need to change map and ugv_int_pos" style="rounded=0;whiteSpace=wrap;html=1;" parent="-VoNo1GTi6xVGyqaLVmS-1" vertex="1">
          <mxGeometry x="1393" y="-550" width="240" height="60" as="geometry" />
        </mxCell>
        <mxCell id="rTxTS8pto7_anECKqYQq-10" value="Schedule n" style="rounded=0;whiteSpace=wrap;html=1;" parent="-VoNo1GTi6xVGyqaLVmS-1" vertex="1">
          <mxGeometry x="853" y="-410" width="250" height="60" as="geometry" />
        </mxCell>
        <mxCell id="rTxTS8pto7_anECKqYQq-11" style="edgeStyle=orthogonalEdgeStyle;rounded=0;orthogonalLoop=1;jettySize=auto;html=1;exitX=1;exitY=0.5;exitDx=0;exitDy=0;" parent="-VoNo1GTi6xVGyqaLVmS-1" source="rTxTS8pto7_anECKqYQq-12" edge="1">
          <mxGeometry relative="1" as="geometry">
            <mxPoint x="1163" y="-300" as="targetPoint" />
          </mxGeometry>
        </mxCell>
        <mxCell id="rTxTS8pto7_anECKqYQq-12" value="Schedule n+1" style="rounded=0;whiteSpace=wrap;html=1;" parent="-VoNo1GTi6xVGyqaLVmS-1" vertex="1">
          <mxGeometry x="853" y="-330" width="250" height="60" as="geometry" />
        </mxCell>
        <mxCell id="rTxTS8pto7_anECKqYQq-13" value="" style="endArrow=classic;html=1;exitX=1;exitY=0.5;exitDx=0;exitDy=0;entryX=0;entryY=0.5;entryDx=0;entryDy=0;" parent="-VoNo1GTi6xVGyqaLVmS-1" source="rTxTS8pto7_anECKqYQq-10" target="rTxTS8pto7_anECKqYQq-14" edge="1">
          <mxGeometry width="50" height="50" relative="1" as="geometry">
            <mxPoint x="1143" y="-350" as="sourcePoint" />
            <mxPoint x="1233" y="-380" as="targetPoint" />
          </mxGeometry>
        </mxCell>
        <mxCell id="rTxTS8pto7_anECKqYQq-14" value="Map 1" style="rounded=1;whiteSpace=wrap;html=1;" parent="-VoNo1GTi6xVGyqaLVmS-1" vertex="1">
          <mxGeometry x="1164" y="-410" width="99" height="60" as="geometry" />
        </mxCell>
        <mxCell id="rTxTS8pto7_anECKqYQq-15" value="Map 3" style="rounded=1;whiteSpace=wrap;html=1;" parent="-VoNo1GTi6xVGyqaLVmS-1" vertex="1">
          <mxGeometry x="1164" y="-330" width="99" height="60" as="geometry" />
        </mxCell>
        <mxCell id="rTxTS8pto7_anECKqYQq-16" value="" style="shape=flexArrow;endArrow=classic;html=1;" parent="-VoNo1GTi6xVGyqaLVmS-1" edge="1">
          <mxGeometry width="50" height="50" relative="1" as="geometry">
            <mxPoint x="1293" y="-340" as="sourcePoint" />
            <mxPoint x="1373" y="-340" as="targetPoint" />
          </mxGeometry>
        </mxCell>
        <mxCell id="rTxTS8pto7_anECKqYQq-17" value="need to change map and ugv_int_pos" style="rounded=0;whiteSpace=wrap;html=1;" parent="-VoNo1GTi6xVGyqaLVmS-1" vertex="1">
          <mxGeometry x="1393" y="-370" width="240" height="60" as="geometry" />
        </mxCell>
        <mxCell id="HK0cMk-z44gNT5a_wmOa-19" value="" style="rounded=0;whiteSpace=wrap;html=1;" parent="-VoNo1GTi6xVGyqaLVmS-1" vertex="1">
          <mxGeometry x="30" y="50" width="770" height="450" as="geometry" />
        </mxCell>
        <mxCell id="HK0cMk-z44gNT5a_wmOa-20" value="" style="rounded=0;whiteSpace=wrap;html=1;" parent="-VoNo1GTi6xVGyqaLVmS-1" vertex="1">
          <mxGeometry x="401" y="380" width="381" height="90" as="geometry" />
        </mxCell>
        <mxCell id="HK0cMk-z44gNT5a_wmOa-21" value="" style="rounded=0;whiteSpace=wrap;html=1;" parent="-VoNo1GTi6xVGyqaLVmS-1" vertex="1">
          <mxGeometry x="401" y="220" width="380" height="150" as="geometry" />
        </mxCell>
        <mxCell id="HK0cMk-z44gNT5a_wmOa-22" value="" style="rounded=0;whiteSpace=wrap;html=1;" parent="-VoNo1GTi6xVGyqaLVmS-1" vertex="1">
          <mxGeometry x="46" y="220" width="305" height="250" as="geometry" />
        </mxCell>
        <mxCell id="HK0cMk-z44gNT5a_wmOa-23" value="手動模式" style="rounded=1;whiteSpace=wrap;html=1;fillColor=#ffe6cc;strokeColor=#d79b00;" parent="-VoNo1GTi6xVGyqaLVmS-1" vertex="1">
          <mxGeometry x="621" y="230" width="120" height="60" as="geometry" />
        </mxCell>
        <mxCell id="HK0cMk-z44gNT5a_wmOa-24" value="自動模式" style="rounded=1;whiteSpace=wrap;html=1;fillColor=#dae8fc;strokeColor=#6c8ebf;" parent="-VoNo1GTi6xVGyqaLVmS-1" vertex="1">
          <mxGeometry x="451" y="230" width="120" height="60" as="geometry" />
        </mxCell>
        <mxCell id="HK0cMk-z44gNT5a_wmOa-25" value="復原模式(手臂)" style="rounded=1;whiteSpace=wrap;html=1;fillColor=#f8cecc;strokeColor=#b85450;" parent="-VoNo1GTi6xVGyqaLVmS-1" vertex="1">
          <mxGeometry x="451" y="300" width="120" height="60" as="geometry" />
        </mxCell>
        <mxCell id="HK0cMk-z44gNT5a_wmOa-26" value="機器人當前模式: 自動模式" style="rounded=1;whiteSpace=wrap;html=1;fillColor=#dae8fc;strokeColor=#6c8ebf;" parent="-VoNo1GTi6xVGyqaLVmS-1" vertex="1">
          <mxGeometry x="63.5" y="230" width="270" height="60" as="geometry" />
        </mxCell>
        <mxCell id="HK0cMk-z44gNT5a_wmOa-27" value="手臂" style="rounded=1;whiteSpace=wrap;html=1;" parent="-VoNo1GTi6xVGyqaLVmS-1" vertex="1">
          <mxGeometry x="61" y="310" width="70" height="60" as="geometry" />
        </mxCell>
        <mxCell id="HK0cMk-z44gNT5a_wmOa-28" value="&amp;nbsp; &amp;nbsp;建議：" style="rounded=1;whiteSpace=wrap;html=1;align=left;" parent="-VoNo1GTi6xVGyqaLVmS-1" vertex="1">
          <mxGeometry x="45" y="120" width="735" height="60" as="geometry" />
        </mxCell>
        <mxCell id="HK0cMk-z44gNT5a_wmOa-29" value="" style="rounded=0;whiteSpace=wrap;html=1;" parent="-VoNo1GTi6xVGyqaLVmS-1" vertex="1">
          <mxGeometry x="45" y="70" width="735" height="30" as="geometry" />
        </mxCell>
        <mxCell id="HK0cMk-z44gNT5a_wmOa-30" value="小車回充電站" style="rounded=1;whiteSpace=wrap;html=1;fillColor=#dae8fc;strokeColor=#6c8ebf;" parent="-VoNo1GTi6xVGyqaLVmS-1" vertex="1">
          <mxGeometry x="451" y="395" width="120" height="60" as="geometry" />
        </mxCell>
        <mxCell id="HK0cMk-z44gNT5a_wmOa-31" value="手臂回原位" style="rounded=1;whiteSpace=wrap;html=1;fillColor=#dae8fc;strokeColor=#6c8ebf;" parent="-VoNo1GTi6xVGyqaLVmS-1" vertex="1">
          <mxGeometry x="621" y="395" width="120" height="60" as="geometry" />
        </mxCell>
        <mxCell id="HK0cMk-z44gNT5a_wmOa-32" value="未連接" style="rounded=1;whiteSpace=wrap;html=1;fillColor=#f8cecc;strokeColor=#b85450;" parent="-VoNo1GTi6xVGyqaLVmS-1" vertex="1">
          <mxGeometry x="141" y="310" width="90" height="60" as="geometry" />
        </mxCell>
        <mxCell id="HK0cMk-z44gNT5a_wmOa-33" value="無任務" style="rounded=1;whiteSpace=wrap;html=1;fillColor=#d5e8d4;strokeColor=#82b366;" parent="-VoNo1GTi6xVGyqaLVmS-1" vertex="1">
          <mxGeometry x="241" y="310" width="90" height="60" as="geometry" />
        </mxCell>
        <mxCell id="HK0cMk-z44gNT5a_wmOa-34" value="小車" style="rounded=1;whiteSpace=wrap;html=1;" parent="-VoNo1GTi6xVGyqaLVmS-1" vertex="1">
          <mxGeometry x="61" y="380" width="70" height="60" as="geometry" />
        </mxCell>
        <mxCell id="HK0cMk-z44gNT5a_wmOa-38" style="edgeStyle=orthogonalEdgeStyle;rounded=0;orthogonalLoop=1;jettySize=auto;html=1;exitX=0.25;exitY=1;exitDx=0;exitDy=0;entryX=0.531;entryY=-0.006;entryDx=0;entryDy=0;entryPerimeter=0;" parent="-VoNo1GTi6xVGyqaLVmS-1" source="HK0cMk-z44gNT5a_wmOa-35" target="HK0cMk-z44gNT5a_wmOa-39" edge="1">
          <mxGeometry relative="1" as="geometry">
            <mxPoint x="140" y="570" as="targetPoint" />
            <Array as="points">
              <mxPoint x="164" y="520" />
              <mxPoint x="147" y="520" />
            </Array>
          </mxGeometry>
        </mxCell>
        <mxCell id="HK0cMk-z44gNT5a_wmOa-35" value="未連接" style="rounded=1;whiteSpace=wrap;html=1;fillColor=#f8cecc;strokeColor=#b85450;" parent="-VoNo1GTi6xVGyqaLVmS-1" vertex="1">
          <mxGeometry x="141" y="380" width="90" height="60" as="geometry" />
        </mxCell>
        <mxCell id="HK0cMk-z44gNT5a_wmOa-41" style="edgeStyle=orthogonalEdgeStyle;rounded=0;orthogonalLoop=1;jettySize=auto;html=1;exitX=0.5;exitY=1;exitDx=0;exitDy=0;entryX=0.5;entryY=0;entryDx=0;entryDy=0;" parent="-VoNo1GTi6xVGyqaLVmS-1" source="HK0cMk-z44gNT5a_wmOa-36" target="HK0cMk-z44gNT5a_wmOa-40" edge="1">
          <mxGeometry relative="1" as="geometry">
            <Array as="points">
              <mxPoint x="286" y="520" />
              <mxPoint x="405" y="520" />
            </Array>
          </mxGeometry>
        </mxCell>
        <mxCell id="HK0cMk-z44gNT5a_wmOa-36" value="任務進行中" style="rounded=1;whiteSpace=wrap;html=1;fillColor=#d5e8d4;strokeColor=#82b366;" parent="-VoNo1GTi6xVGyqaLVmS-1" vertex="1">
          <mxGeometry x="241" y="380" width="90" height="60" as="geometry" />
        </mxCell>
        <mxCell id="HK0cMk-z44gNT5a_wmOa-47" style="edgeStyle=orthogonalEdgeStyle;rounded=0;orthogonalLoop=1;jettySize=auto;html=1;exitX=1;exitY=0.5;exitDx=0;exitDy=0;entryX=0;entryY=0.5;entryDx=0;entryDy=0;" parent="-VoNo1GTi6xVGyqaLVmS-1" source="HK0cMk-z44gNT5a_wmOa-37" target="HK0cMk-z44gNT5a_wmOa-46" edge="1">
          <mxGeometry relative="1" as="geometry" />
        </mxCell>
        <mxCell id="HK0cMk-z44gNT5a_wmOa-37" value="復原模式(手柄)" style="rounded=1;whiteSpace=wrap;html=1;fillColor=#f8cecc;strokeColor=#b85450;" parent="-VoNo1GTi6xVGyqaLVmS-1" vertex="1">
          <mxGeometry x="621" y="300" width="120" height="60" as="geometry" />
        </mxCell>
        <mxCell id="HK0cMk-z44gNT5a_wmOa-42" style="edgeStyle=orthogonalEdgeStyle;rounded=0;orthogonalLoop=1;jettySize=auto;html=1;exitX=0.25;exitY=1;exitDx=0;exitDy=0;" parent="-VoNo1GTi6xVGyqaLVmS-1" source="HK0cMk-z44gNT5a_wmOa-39" target="HK0cMk-z44gNT5a_wmOa-43" edge="1">
          <mxGeometry relative="1" as="geometry">
            <mxPoint x="10" y="660" as="targetPoint" />
          </mxGeometry>
        </mxCell>
        <mxCell id="HK0cMk-z44gNT5a_wmOa-39" value="Front end should check column &quot;connection_status&quot; in table &quot;sys_status_device&quot; where ID == 2&amp;nbsp;" style="rounded=0;whiteSpace=wrap;html=1;" parent="-VoNo1GTi6xVGyqaLVmS-1" vertex="1">
          <mxGeometry x="30" y="540" width="220" height="60" as="geometry" />
        </mxCell>
        <mxCell id="HK0cMk-z44gNT5a_wmOa-45" style="edgeStyle=orthogonalEdgeStyle;rounded=0;orthogonalLoop=1;jettySize=auto;html=1;exitX=0.25;exitY=1;exitDx=0;exitDy=0;" parent="-VoNo1GTi6xVGyqaLVmS-1" source="HK0cMk-z44gNT5a_wmOa-40" target="HK0cMk-z44gNT5a_wmOa-44" edge="1">
          <mxGeometry relative="1" as="geometry" />
        </mxCell>
        <mxCell id="HK0cMk-z44gNT5a_wmOa-40" value="Front end should check&amp;nbsp;column &quot;mission_status&quot; in table &quot;sys_status_device&quot; where ID == 2&amp;nbsp;" style="rounded=0;whiteSpace=wrap;html=1;" parent="-VoNo1GTi6xVGyqaLVmS-1" vertex="1">
          <mxGeometry x="290" y="540" width="230" height="60" as="geometry" />
        </mxCell>
        <mxCell id="HK0cMk-z44gNT5a_wmOa-43" value="DataType is defined in table &quot;data_device_ConnectionStatus&quot;" style="rounded=0;whiteSpace=wrap;html=1;" parent="-VoNo1GTi6xVGyqaLVmS-1" vertex="1">
          <mxGeometry x="30" y="630" width="230" height="60" as="geometry" />
        </mxCell>
        <mxCell id="HK0cMk-z44gNT5a_wmOa-44" value="DataType is defined in table &quot;data_device_MissionStatus&quot;" style="rounded=0;whiteSpace=wrap;html=1;" parent="-VoNo1GTi6xVGyqaLVmS-1" vertex="1">
          <mxGeometry x="289" y="630" width="231" height="60" as="geometry" />
        </mxCell>
        <mxCell id="HK0cMk-z44gNT5a_wmOa-46" value="Front end should set &quot;connection_status&quot; = 0 in table &quot;sys_status_device&quot; where ID == 5&amp;nbsp;" style="rounded=0;whiteSpace=wrap;html=1;" parent="-VoNo1GTi6xVGyqaLVmS-1" vertex="1">
          <mxGeometry x="840" y="310" width="252" height="60" as="geometry" />
        </mxCell>
      </root>
    </mxGraphModel>
  </diagram>
  <diagram id="D8qx5GtqE4xKNmAFKGdk" name="Page-4">
    <mxGraphModel dx="1008" dy="562" grid="1" gridSize="10" guides="1" tooltips="1" connect="1" arrows="1" fold="1" page="1" pageScale="1" pageWidth="827" pageHeight="1169" math="0" shadow="0">
      <root>
        <mxCell id="tRaAJy0J-biame4A7clu-0" />
        <mxCell id="tRaAJy0J-biame4A7clu-1" parent="tRaAJy0J-biame4A7clu-0" />
        <mxCell id="tRaAJy0J-biame4A7clu-2" value="狀態" style="rounded=1;whiteSpace=wrap;html=1;" vertex="1" parent="tRaAJy0J-biame4A7clu-1">
          <mxGeometry x="90" y="120" width="120" height="60" as="geometry" />
        </mxCell>
        <mxCell id="tRaAJy0J-biame4A7clu-3" value="" style="triangle;whiteSpace=wrap;html=1;rotation=90;strokeWidth=2;" vertex="1" parent="tRaAJy0J-biame4A7clu-1">
          <mxGeometry x="180" y="145" width="10" height="10" as="geometry" />
        </mxCell>
        <mxCell id="tRaAJy0J-biame4A7clu-6" value="" style="rounded=0;whiteSpace=wrap;html=1;strokeWidth=1;" vertex="1" parent="tRaAJy0J-biame4A7clu-1">
          <mxGeometry x="450" y="170" width="140" height="240" as="geometry" />
        </mxCell>
        <mxCell id="tRaAJy0J-biame4A7clu-7" value="狀態" style="rounded=1;whiteSpace=wrap;html=1;" vertex="1" parent="tRaAJy0J-biame4A7clu-1">
          <mxGeometry x="320" y="120" width="120" height="60" as="geometry" />
        </mxCell>
        <mxCell id="tRaAJy0J-biame4A7clu-8" value="" style="triangle;whiteSpace=wrap;html=1;rotation=90;strokeWidth=2;" vertex="1" parent="tRaAJy0J-biame4A7clu-1">
          <mxGeometry x="410" y="145" width="10" height="10" as="geometry" />
        </mxCell>
        <mxCell id="tRaAJy0J-biame4A7clu-5" value="" style="shape=image;html=1;verticalAlign=top;verticalLabelPosition=bottom;labelBackgroundColor=#ffffff;imageAspect=0;aspect=fixed;image=https://cdn4.iconfinder.com/data/icons/interactive-gesture-pack/99/Single_Tap-128.png;strokeWidth=2;" vertex="1" parent="tRaAJy0J-biame4A7clu-1">
          <mxGeometry x="405" y="155" width="35" height="35" as="geometry" />
        </mxCell>
        <mxCell id="tRaAJy0J-biame4A7clu-9" value="錯誤" style="rounded=1;whiteSpace=wrap;html=1;strokeWidth=1;" vertex="1" parent="tRaAJy0J-biame4A7clu-1">
          <mxGeometry x="460" y="190" width="120" height="40" as="geometry" />
        </mxCell>
        <mxCell id="tRaAJy0J-biame4A7clu-10" value="完成" style="rounded=1;whiteSpace=wrap;html=1;strokeWidth=1;" vertex="1" parent="tRaAJy0J-biame4A7clu-1">
          <mxGeometry x="460" y="240" width="120" height="40" as="geometry" />
        </mxCell>
        <mxCell id="tRaAJy0J-biame4A7clu-11" value="進行中" style="rounded=1;whiteSpace=wrap;html=1;strokeWidth=1;" vertex="1" parent="tRaAJy0J-biame4A7clu-1">
          <mxGeometry x="460" y="290" width="120" height="40" as="geometry" />
        </mxCell>
        <mxCell id="tRaAJy0J-biame4A7clu-12" value="已取消" style="rounded=1;whiteSpace=wrap;html=1;strokeWidth=1;" vertex="1" parent="tRaAJy0J-biame4A7clu-1">
          <mxGeometry x="460" y="340" width="120" height="40" as="geometry" />
        </mxCell>
        <mxCell id="tRaAJy0J-biame4A7clu-13" value="" style="shape=flexArrow;endArrow=classic;html=1;" edge="1" parent="tRaAJy0J-biame4A7clu-1">
          <mxGeometry width="50" height="50" relative="1" as="geometry">
            <mxPoint x="230" y="149.58" as="sourcePoint" />
            <mxPoint x="290" y="149.58" as="targetPoint" />
          </mxGeometry>
        </mxCell>
      </root>
    </mxGraphModel>
  </diagram>
</mxfile>
